<svg width="48" height="48" viewBox="0 0 48 48" fill="none" xmlns="http://www.w3.org/2000/svg">
<g opacity="0.85">
<path d="M21.3087 14.5197C20.9142 14.9128 20.9168 15.5525 21.3146 15.9423L28.513 22.9964C28.9131 23.3885 28.9131 24.0328 28.513 24.4249L21.3146 31.4789C20.9168 31.8688 20.9142 32.5085 21.3087 32.9016L22.7078 34.2956C23.0958 34.6821 23.7224 34.6848 24.1135 34.3015L34.1929 24.4249C34.593 24.0328 34.593 23.3885 34.1929 22.9964L24.1135 13.1198C23.7224 12.7365 23.0958 12.7391 22.7078 13.1256L21.3087 14.5197Z" fill="#216E8F"/>
<path opacity="0.5" d="M16.895 15.4508C16.5039 15.0676 15.8772 15.0702 15.4893 15.4567L14.672 16.271C14.2774 16.6642 14.2801 17.3038 14.6779 17.6937L20.089 22.9964C20.4891 23.3885 20.4891 24.0327 20.089 24.4248L14.6779 29.7275C14.2801 30.1173 14.2774 30.757 14.672 31.1501L15.4893 31.9645C15.8772 32.351 16.5039 32.3536 16.895 31.9703L24.5954 24.4248C24.9955 24.0327 24.9955 23.3884 24.5954 22.9963L16.895 15.4508Z" fill="#216E8F"/>
</g>
</svg>
