<svg width="108" height="104" viewBox="0 0 108 104" fill="none" xmlns="http://www.w3.org/2000/svg">
<g clip-path="url(#clip0_156_973)">
<path d="M31.3513 45.5567C32.9117 46.9263 34.5944 48.1479 36.378 49.2057C36.8312 49.4819 37.2963 49.7396 37.7702 49.982C37.5208 49.9842 37.2746 49.9765 37.022 49.9864C36.3725 50.0278 35.7296 50.0835 35.0508 50.1894C34.7028 50.2484 34.371 50.2964 33.9318 50.4482C33.7876 50.5126 33.7041 50.5323 33.5166 50.648C33.4179 50.7135 33.3214 50.7867 33.2336 50.8653C33.0662 51.0419 32.9434 51.2565 32.8758 51.4909C32.8107 51.7301 32.8508 52.0947 32.969 52.3502C33.0362 52.49 33.0254 52.4561 33.0568 52.5173L33.188 52.7499C34.6453 55.2382 37.176 56.6958 39.5581 57.6283C41.2245 58.2787 42.9629 58.7238 44.7355 58.9538C44.215 59.1645 43.6903 59.3665 43.1492 59.5226C42.8218 59.6176 42.4911 59.7017 42.1571 59.7749L41.6551 59.8775C41.4578 59.9539 41.2864 59.8633 40.8972 60.2269C40.7953 60.3252 40.7519 60.5381 40.8039 60.7324C40.8484 60.8493 40.9113 60.929 40.972 61.001C41.0707 61.0927 41.1726 61.1703 41.2582 61.2183C41.4382 61.3308 41.6074 61.405 41.7776 61.4825C42.1181 61.6299 42.4564 61.749 42.7979 61.8614C44.1782 62.3189 45.6127 62.4641 47.02 62.5242L51.2368 62.6028C48.461 62.2589 45.5736 62.2534 43.0343 61.203C42.7186 61.0771 42.4089 60.9365 42.1061 60.7816C42.0736 60.7641 42.0476 60.7444 42.0151 60.727L42.3219 60.6866C44.12 60.421 45.8654 59.872 47.4939 59.0597C47.62 58.9973 47.7222 58.8947 47.7847 58.768C47.8472 58.6412 47.8665 58.4972 47.8396 58.3583C47.8127 58.2193 47.7411 58.0932 47.6359 57.9993C47.5307 57.9055 47.3977 57.8491 47.2575 57.839L47.2087 57.8357C44.8081 57.6512 42.4444 56.9699 40.2813 55.9403C38.3838 55.0646 36.7412 53.8461 35.5799 52.324C36.0852 52.2509 36.6197 52.2006 37.1543 52.1668C38.347 52.122 39.5971 52.1843 40.8148 52.1865C42.0378 52.1701 43.2706 52.2727 44.5045 52.3775L45.7254 52.4736C46.5451 52.5697 47.3703 52.6341 48.1943 52.6669L48.2019 52.668C48.242 52.6691 48.2821 52.6734 48.3212 52.6745C48.4631 52.6825 48.6051 52.6622 48.7392 52.6149C48.8733 52.5676 48.9969 52.4941 49.1028 52.3987C49.2087 52.3033 49.2949 52.1878 49.3565 52.0588C49.4181 51.9299 49.4539 51.79 49.4618 51.6471C49.4697 51.5042 49.4496 51.3611 49.4026 51.2261C49.3556 51.091 49.2826 50.9666 49.1879 50.86C49.0932 50.7533 48.9785 50.6665 48.8504 50.6045C48.7224 50.5424 48.5834 50.5064 48.4415 50.4984L45.8826 50.2975C44.8125 50.1687 43.751 49.9711 42.7166 49.6348C40.9026 49.0648 39.119 48.3289 37.4698 47.3211C35.8046 46.3325 34.2333 45.1914 32.776 43.9123C32.5537 43.7169 32.3358 43.5105 32.1168 43.3085C33.027 43.5959 33.9522 43.8328 34.8882 44.0183C36.1893 44.277 37.5078 44.4386 38.8317 44.5052C40.1686 44.5707 41.4523 44.5653 42.8608 44.4004C43.1273 44.3692 43.3727 44.2393 43.5493 44.036C43.726 43.8327 43.8213 43.5706 43.8167 43.3005C43.8121 43.0304 43.7079 42.7717 43.5245 42.5746C43.341 42.3775 43.0913 42.2562 42.8239 42.2342L42.76 42.2287C41.1531 42.0966 39.557 41.7548 38.0304 41.139C36.5026 40.4898 35.0503 39.6732 33.6998 38.7042C32.3531 37.7097 31.0883 36.6074 29.9179 35.4079C30.511 35.6077 31.1052 35.7911 31.7015 35.9549C33.9555 36.5759 36.2417 37.0716 38.5497 37.4398C38.811 37.4797 39.0776 37.422 39.2996 37.2777C39.5215 37.1334 39.6835 36.9124 39.7549 36.6562C39.8263 36.4001 39.8023 36.1265 39.6874 35.8869C39.5725 35.6473 39.3746 35.4583 39.1309 35.3555L39.0485 35.3216C38.244 34.9908 37.408 34.7287 36.6284 34.3477C35.8597 33.947 35.0606 33.5965 34.3525 33.0942C32.8671 32.2 31.5606 31.0393 30.3906 29.7684C29.2174 28.4868 28.227 27.0471 27.4479 25.4905C27.2961 25.1946 27.1563 24.8867 27.0186 24.5788C27.7049 25.0996 28.4064 25.5888 29.1209 26.0463C30.0859 26.661 31.0781 27.2156 32.0821 27.7419C33.0937 28.2671 34.0934 28.7552 35.1668 29.2127C35.4252 29.3217 35.7154 29.3259 35.9768 29.2242C36.2381 29.1226 36.4502 28.923 36.5687 28.6674C36.6871 28.4118 36.7027 28.1199 36.6122 27.8529C36.5216 27.5859 36.332 27.3646 36.083 27.2353L36.0679 27.2277C34.5546 26.4508 33.3002 25.245 32.4594 23.7588C31.5844 22.2717 31.0846 20.5291 30.8048 18.7472C30.5359 16.9729 30.486 15.1441 30.5901 13.3163C31.5478 15.9736 32.8748 18.4807 34.5314 20.7628C37.2757 24.5755 40.9275 27.8708 44.9664 30.0894C48.962 32.3714 52.9954 34.3695 56.3588 37.3688C58.0427 38.8429 59.5878 40.5068 60.7523 42.4263C61.9439 44.3185 62.6671 46.5656 62.473 48.865C62.8688 46.595 62.3353 44.1995 61.2695 42.1359C60.2178 40.0494 58.7301 38.2183 57.1027 36.5685C53.8488 33.2176 49.7849 30.8264 46.054 28.3228C44.2042 27.0344 42.3468 25.8224 40.6933 24.3812C39.0593 22.941 37.5772 21.2574 36.2858 19.4798C33.702 15.9116 31.9216 11.7517 31.3654 7.4006L31.3632 7.37767C31.3297 7.12483 31.2091 6.89188 31.0224 6.71946C30.8357 6.54704 30.5949 6.44611 30.3418 6.43428C30.0888 6.42245 29.8397 6.50047 29.6379 6.65473C29.4362 6.80899 29.2947 7.02969 29.238 7.27831C28.808 9.20732 28.5367 11.1688 28.427 13.1427C28.3143 15.1069 28.362 17.0974 28.6623 19.0813C28.9355 20.8119 29.418 22.5523 30.2388 24.1737C28.4487 23.0382 26.7204 21.7302 25.5537 20.171L25.5125 20.1153C25.3664 19.9211 25.1594 19.7823 24.9252 19.7214C24.6909 19.6606 24.4431 19.6811 24.2219 19.7799C24.0008 19.8786 23.8192 20.0497 23.7067 20.2653C23.5941 20.481 23.5573 20.7286 23.602 20.968C23.9826 22.9912 24.6429 24.747 25.5179 26.4863C26.3853 28.2142 27.4853 29.8132 28.787 31.2381C29.5395 32.057 30.3516 32.8245 31.2158 33.5266C30.5149 33.3107 29.8223 33.0685 29.1394 32.8005C28.1397 32.402 27.1432 31.9063 26.4905 31.3178L26.4602 31.2894C26.2625 31.1108 26.0064 31.0118 25.7409 31.0112C25.4754 31.0106 25.2189 31.1085 25.0204 31.2861C24.8219 31.4637 24.6952 31.7087 24.6646 31.9743C24.634 32.2399 24.7015 32.5076 24.8544 32.7263C25.9278 34.2669 27.0825 35.6044 28.3457 36.9114C29.6114 38.2103 30.9803 39.4029 32.4388 40.4774C33.0059 40.8835 33.5968 41.2602 34.1986 41.6194C33.3767 41.4229 32.5613 41.1991 31.7698 40.9097C30.6118 40.521 29.5156 39.9849 28.4357 39.4248L28.3847 39.3975C28.1662 39.2849 27.916 39.2508 27.6756 39.3008C27.4352 39.3508 27.2189 39.482 27.0626 39.6726C26.9063 39.8633 26.8193 40.1019 26.816 40.3491C26.8128 40.5963 26.8934 40.8373 27.0446 41.032C28.3674 42.7331 29.7921 44.1755 31.3513 45.5567Z" fill="white"/>
<path d="M83.3118 46.6835H83.2825C82.7838 46.6813 81.8133 46.1813 81.2246 45.6277C81.084 45.503 80.9558 45.3647 80.8418 45.215L80.5014 44.6199C80.1916 44.0751 79.8093 43.5755 79.3651 43.135C78.4471 42.2396 77.2614 41.6743 75.9919 41.5267C74.6897 41.4306 73.5686 41.7145 72.4876 42.1414C70.3667 43.0531 68.7208 44.574 67.3514 46.2195C65.9679 47.8638 64.8424 49.6872 63.9088 51.5827C65.0832 49.8468 66.4459 48.2479 67.9716 46.8156C69.47 45.4039 71.1962 44.2225 73.0243 43.6645C73.4732 43.5375 73.9326 43.452 74.3969 43.409C74.8513 43.4199 75.3229 43.3643 75.697 43.4702C76.4907 43.6427 77.2085 44.1449 77.8135 44.74C78.1171 45.0403 78.3936 45.3733 78.6169 45.7358L79.0864 46.4979C79.2762 46.7588 79.4735 46.963 79.6752 47.1552C78.8511 47.4238 78.0542 47.8321 77.3754 48.3573C75.6406 49.6501 74.6236 51.5718 73.844 53.2587C73.0221 54.9752 72.2988 56.7378 71.6776 58.5378C71.0455 60.3427 70.5901 62.2043 70.0729 63.9392C69.5514 65.6786 68.9268 67.336 67.9694 68.7238C67.025 70.1192 65.7326 71.2023 64.1994 71.948C62.6738 72.7047 60.9748 73.1087 59.2129 73.327C57.462 73.5481 55.6907 73.5514 53.939 73.3369C53.6571 73.3019 53.3535 73.3784 53.1171 73.5738L46.1257 79.3443C44.9764 80.3193 43.8466 81.2823 42.6734 82.1427C42.0868 82.574 41.4905 82.9791 40.879 83.3492C40.6762 83.4726 40.468 83.585 40.262 83.6986C40.1493 83.1822 39.9584 82.6166 39.6407 82.1143C39.3263 81.6121 38.8991 81.1185 38.2811 80.7746C38.1214 80.6833 37.9519 80.6108 37.7758 80.5584C37.5709 80.5093 37.3117 80.447 37.1404 80.4558C36.8153 80.4546 36.4912 80.4934 36.1754 80.5715C35.1085 80.8587 34.2866 81.2769 33.4702 81.599C33.0942 81.7571 32.7089 81.8916 32.3165 82.0019L32.2666 82.0128C32.3783 81.8523 32.4976 81.6885 32.6201 81.528C33.1664 80.8251 33.7363 80.1412 34.3289 79.4775C35.5339 78.1248 36.7732 76.8036 38.0458 75.5151C38.1912 75.3665 38.2915 75.179 38.3347 74.9749C38.378 74.7708 38.3624 74.5585 38.2898 74.363C38.2172 74.1675 38.0907 73.9969 37.9251 73.8714C37.7595 73.7459 37.5617 73.6707 37.3551 73.6546L37.3182 73.6513L36.0507 73.5563C35.6387 73.4854 35.2191 73.4384 34.8125 73.3511C34.0058 73.1633 33.2089 72.9351 32.4856 72.578C31.7979 72.2501 31.1609 71.8235 30.5947 71.3115C31.7158 71.46 32.8413 71.5539 33.9754 71.4643C35.9824 71.3835 37.9634 71.0134 39.8814 70.5068C41.8038 70.0023 43.6504 69.2588 45.3993 68.3634C47.1471 67.467 48.792 66.3675 50.2373 65.0649C48.6358 66.1666 46.8739 66.979 45.0881 67.657C43.298 68.3252 41.4536 68.8286 39.5822 69.0917C37.7151 69.357 35.8339 69.487 33.9711 69.3428C33.0397 69.3101 32.1159 69.214 31.1856 69.1725C30.2564 69.1114 29.3424 68.9028 28.4186 68.7784L28.2982 68.762C28.1165 68.738 27.9317 68.7622 27.7621 68.8321C27.5924 68.902 27.4439 69.0153 27.331 69.1607C27.2181 69.3061 27.1449 69.4786 27.1184 69.6613C27.092 69.8439 27.1133 70.0303 27.1803 70.2021C27.4286 70.842 27.6856 71.2274 28.0011 71.6772C28.309 72.1052 28.6604 72.4918 29.0366 72.8455C29.7849 73.5397 30.6343 74.1145 31.5553 74.5499C32.4596 74.9932 33.4127 75.2684 34.3658 75.4878C34.5609 75.5293 34.7561 75.561 34.9513 75.5926C34.1899 76.3911 33.442 77.2024 32.7079 78.0264C32.0796 78.7295 31.4761 79.4546 30.8983 80.2003C30.6055 80.5901 30.3193 80.9777 30.0395 81.4679C29.9691 81.6077 29.9008 81.7191 29.8303 81.9025C29.7967 81.9833 29.762 82.0652 29.7294 82.2028L29.6872 82.3884C29.6732 82.4896 29.6681 82.5919 29.672 82.6941C29.6796 82.8065 29.6709 82.8841 29.7468 83.0926C29.7977 83.252 29.9495 83.4846 29.9994 83.5272C30.0818 83.608 30.1697 83.6855 30.2607 83.7608C30.4396 83.9235 30.6348 84.0283 30.843 84.0982C31.6779 84.3908 32.3154 84.2347 32.8445 84.1201C33.3628 83.9781 33.8432 83.8067 34.2779 83.6254C35.1551 83.2695 35.9857 82.8775 36.6861 82.6941C36.8477 82.6602 36.9962 82.6362 37.0754 82.6395C37.1328 82.6319 37.0949 82.657 37.1144 82.6395C37.1583 82.6489 37.2002 82.6663 37.238 82.6908C37.4234 82.7902 37.6327 82.9998 37.7996 83.2728C37.9655 83.5348 38.0729 83.834 38.152 84.203L38.1802 84.3417L38.1922 84.4269L38.2138 84.7304C38.2464 84.9837 38.2149 85.2993 38.4806 85.8485L38.4925 85.8736C38.6028 86.0992 38.7928 86.2752 39.0253 86.3671C39.2577 86.459 39.5159 86.4602 39.7492 86.3704C40.2718 86.1695 40.6057 85.9926 40.956 85.8103C41.3083 85.6235 41.6553 85.4281 41.9936 85.2217C42.6647 84.8131 43.3174 84.3745 43.9496 83.9071C45.2063 82.9845 46.374 81.9866 47.5234 81.0126L54.1439 75.5479C55.9254 75.7335 57.7101 75.7095 59.4752 75.4944C61.3836 75.2585 63.3439 74.8054 65.1514 73.909C66.9578 73.0399 68.6102 71.662 69.7509 69.9663C70.911 68.2794 71.5985 66.3915 72.1471 64.5703C72.6936 62.7327 73.124 60.9661 73.7258 59.2508C74.3205 57.5257 75.0137 55.8367 75.8022 54.1922C76.5731 52.5239 77.3982 51.0499 78.682 50.0978C79.9289 49.1085 81.4902 48.8498 83.2814 48.8672H83.3161C83.6037 48.8666 83.8793 48.7511 84.0822 48.5459C84.2851 48.3407 84.3988 48.0628 84.3982 47.7732C84.3977 47.4836 84.2829 47.2061 84.0791 47.0018C83.8754 46.7974 83.5994 46.6829 83.3118 46.6835ZM31.8297 82.7443C31.8253 82.7552 31.8232 82.7596 31.8297 82.7443ZM50.8683 25.9251C51.2023 26.8728 51.6761 27.7703 52.2323 28.5892C52.7929 29.4125 53.5172 30.0971 54.2621 30.702C53.6451 29.9551 53.0954 29.1734 52.7268 28.301C52.3516 27.4384 52.0469 26.5562 51.8908 25.6358C51.743 24.7992 51.6672 23.9513 51.6642 23.1016C52.048 23.4804 52.4384 23.8397 52.846 24.1596C53.4348 24.6269 54.0387 25.0571 54.66 25.4512C55.2867 25.8498 55.8982 26.2123 56.5835 26.5671C56.802 26.6799 57.0522 26.7143 57.2927 26.6648C57.5333 26.6154 57.75 26.4849 57.9071 26.2949C58.0642 26.1049 58.1524 25.8667 58.1572 25.6195C58.162 25.3723 58.0831 25.1308 57.9334 24.9348L57.8976 24.8878C57.2568 24.0493 56.6421 23.1791 56.2203 22.1909C55.7706 21.21 55.4334 20.1807 55.2152 19.1228C55.0642 18.3775 54.9595 17.6233 54.9018 16.8649C55.2238 17.2394 55.5448 17.6139 55.8907 17.9524C56.3667 18.4164 56.8329 18.84 57.3761 19.2746C57.5518 19.4153 57.7667 19.4973 57.9909 19.5091C58.2151 19.521 58.4374 19.4621 58.6268 19.3407C58.8161 19.2194 58.9632 19.0415 59.0475 18.832C59.1317 18.6225 59.149 18.3917 59.0968 18.1718L59.0806 18.1052C58.9136 17.4053 58.7239 16.7087 58.5721 16.0067C58.4777 15.298 58.3075 14.5938 58.2706 13.883C58.1221 12.4614 58.1795 11.0387 58.3519 9.64003C58.5764 8.2501 58.9591 6.89074 59.5392 5.622C59.5804 5.53137 59.6314 5.44184 59.6748 5.35122C59.7973 7.51637 60.3448 9.64331 61.1548 11.5846C61.8139 13.1823 62.6221 14.7134 63.5684 16.1573C64.5236 17.592 65.5732 18.8848 66.4937 20.1961C67.4162 21.4579 68.162 22.8416 68.71 24.3081C68.993 25.0396 69.1621 25.8094 69.4017 26.5627C69.6413 27.3172 69.8831 28.0815 70.0599 28.8666C70.8069 32.0035 71.0748 35.3118 71.1051 38.6398C71.7676 35.3795 72.1146 32.0046 71.8413 28.586C71.7815 27.7254 71.6743 26.8688 71.5204 26.0201C71.3577 25.1663 71.0357 24.3528 70.7386 23.5339C70.1249 21.8947 69.2925 20.3471 68.2643 18.9339C67.2842 17.5407 66.2476 16.2622 65.3715 14.9421C64.5043 13.6178 63.7634 12.214 63.1585 10.7494C61.9506 7.84502 61.4313 4.6699 62.1187 1.69131L62.1317 1.63453C62.1826 1.40782 62.1592 1.17059 62.0651 0.958384C61.9709 0.746178 61.8109 0.570413 61.6092 0.457416C61.4075 0.344418 61.1749 0.300269 60.9461 0.331582C60.7174 0.362896 60.5049 0.467986 60.3405 0.631112C59.0676 1.89221 58.2641 3.22318 57.5691 4.70484C56.8969 6.17229 56.4577 7.73365 56.2051 9.31684C56.0045 10.9044 55.946 12.5083 56.1086 14.085C56.1281 14.4289 56.1791 14.7674 56.2322 15.1048C55.8849 14.6867 55.5852 14.2307 55.3388 13.7454C55.1122 13.2934 54.9853 12.8392 55.0135 12.5214L55.0157 12.4952C55.0415 12.2124 54.9567 11.9305 54.7794 11.7096C54.6021 11.4887 54.3462 11.3462 54.0661 11.3124C53.786 11.2785 53.5039 11.356 53.2797 11.5284C53.0555 11.7008 52.9069 11.9544 52.8656 12.2354C52.8601 12.2725 52.8601 12.3053 52.8547 12.3413H52.8515V12.3664C52.5105 14.7669 52.5912 17.2091 53.09 19.5814C53.2646 20.4582 53.528 21.3218 53.8544 22.1647C53.4662 21.8383 53.0976 21.4998 52.8027 21.1297C52.4308 20.6525 52.0697 20.2027 51.8865 19.779L51.7856 19.5454C51.697 19.3391 51.5413 19.1694 51.3441 19.0642C51.1469 18.9589 50.92 18.9244 50.7007 18.9664C50.4815 19.0083 50.2829 19.1242 50.1378 19.2949C49.9927 19.4657 49.9096 19.6811 49.9022 19.9057C49.8621 21.0085 49.9543 21.9813 50.1083 22.9956C50.2763 23.9969 50.5268 24.9796 50.8683 25.9251Z" fill="white"/>
<path d="M5.50259 101.705C5.45575 101.701 5.43054 101.712 5.43054 101.734C5.32966 102.22 5.13873 102.593 4.86493 102.862C4.58753 103.127 4.24168 103.261 3.82378 103.261H2.98077C2.73939 103.261 2.55566 103.239 2.43678 103.196C2.3215 103.152 2.23864 103.076 2.1882 102.974C2.14136 102.869 2.11975 102.717 2.11975 102.51V99.7818H3.45631C3.86701 99.7818 4.16242 99.858 4.34255 100.014C4.52628 100.166 4.61635 100.42 4.61635 100.769C4.61635 100.787 4.63797 100.794 4.6884 100.794C4.73524 100.794 4.75685 100.787 4.75685 100.769L4.74604 100.174C4.73884 100.054 4.73524 99.8798 4.73524 99.6476L4.74604 98.6608C4.74604 98.6427 4.72082 98.6354 4.67399 98.6354C4.62715 98.6354 4.60554 98.6427 4.60554 98.6608C4.60554 98.9619 4.51548 99.1796 4.33895 99.3138C4.15882 99.4517 3.87421 99.517 3.47793 99.517H2.11975V97.0864C2.11975 96.7925 2.17739 96.593 2.29628 96.4914C2.41516 96.3862 2.66014 96.3354 3.0312 96.3354H3.67967C4.07596 96.3354 4.39299 96.4515 4.63797 96.68C4.88294 96.9122 5.03065 97.2424 5.07748 97.6704C5.07748 97.6958 5.0991 97.7067 5.14233 97.7067C5.18556 97.7067 5.20718 97.6958 5.20718 97.6704L5.18196 96.183C5.18196 96.1105 5.14953 96.0742 5.07748 96.0742H0.27162C0.25721 96.0742 0.25 96.0996 0.25 96.1468C0.25 96.1939 0.25721 96.2157 0.27162 96.2157C0.563431 96.2157 0.775983 96.2375 0.912882 96.281C1.04618 96.3245 1.13624 96.4043 1.18308 96.5132C1.22991 96.6256 1.25513 96.7998 1.25513 97.0392V102.557C1.25513 102.797 1.22991 102.971 1.18308 103.087C1.13624 103.203 1.04618 103.279 0.912882 103.319C0.775983 103.359 0.563431 103.381 0.27162 103.381C0.25721 103.381 0.25 103.402 0.25 103.45C0.25 103.497 0.25721 103.522 0.27162 103.522H5.27923C5.34768 103.522 5.39811 103.508 5.42693 103.482C5.45215 103.453 5.46656 103.406 5.46656 103.344C5.46656 102.797 5.50259 102.263 5.57464 101.748C5.57464 101.723 5.54942 101.708 5.50259 101.705ZM14.5091 103.45C14.5091 103.402 14.4947 103.381 14.4622 103.381C14.2173 103.381 14.0011 103.275 13.8102 103.069C13.6228 102.862 13.3923 102.47 13.1257 101.89L10.3085 95.9799C10.3012 95.9545 10.2724 95.9436 10.2256 95.9436C10.1788 95.9436 10.1463 95.9545 10.1319 95.9799L7.63172 101.864C7.4588 102.278 7.30028 102.593 7.15978 102.807C7.01928 103.021 6.87158 103.17 6.71667 103.254C6.56175 103.337 6.37441 103.381 6.15466 103.381C6.11503 103.381 6.09341 103.402 6.09341 103.45C6.09341 103.497 6.11503 103.522 6.15466 103.522C6.32037 103.522 6.52213 103.515 6.75629 103.497C7.0409 103.482 7.28227 103.475 7.48041 103.475C7.70017 103.475 7.95956 103.482 8.26218 103.497C8.52877 103.515 8.73412 103.522 8.87462 103.522C8.91425 103.522 8.93586 103.497 8.93586 103.45C8.93586 103.402 8.91425 103.381 8.87462 103.381C8.11087 103.381 7.72899 103.13 7.72899 102.63C7.72899 102.43 7.77943 102.212 7.8803 101.973L9.91577 97.2061L12.4268 102.485C12.5349 102.724 12.5925 102.902 12.5925 103.021C12.5925 103.156 12.5313 103.25 12.4088 103.301C12.2863 103.352 12.0845 103.381 11.7999 103.381C11.7675 103.381 11.7531 103.402 11.7531 103.45C11.7531 103.497 11.7675 103.522 11.7999 103.522C11.9404 103.522 12.1386 103.515 12.3908 103.497C12.6573 103.482 12.8843 103.475 13.0644 103.475C13.2157 103.475 13.4463 103.482 13.7633 103.497C14.0804 103.515 14.3109 103.522 14.4622 103.522C14.4947 103.522 14.5091 103.497 14.5091 103.45ZM20.2264 101.705C20.176 101.701 20.1543 101.712 20.1543 101.734C20.0499 102.22 19.8625 102.593 19.5851 102.862C19.3113 103.127 18.9619 103.261 18.544 103.261H17.7046C17.4596 103.261 17.2795 103.239 17.1606 103.196C17.0417 103.152 16.9588 103.076 16.912 102.974C16.8652 102.869 16.84 102.717 16.84 102.51V99.7818H18.1765C18.5872 99.7818 18.8826 99.858 19.0664 100.014C19.2465 100.166 19.3366 100.42 19.3366 100.769C19.3366 100.787 19.3618 100.794 19.4086 100.794C19.4554 100.794 19.4807 100.787 19.4807 100.769L19.4663 100.174C19.459 100.054 19.4554 99.8798 19.4554 99.6476L19.4663 98.6608C19.4663 98.6427 19.4446 98.6354 19.3978 98.6354C19.3474 98.6354 19.3258 98.6427 19.3258 98.6608C19.3258 98.9619 19.2357 99.1796 19.0592 99.3138C18.8826 99.4517 18.5944 99.517 18.2017 99.517H16.84V97.0864C16.84 96.7925 16.9012 96.593 17.0165 96.4914C17.1354 96.3862 17.3803 96.3354 17.7514 96.3354H18.4035C18.7962 96.3354 19.1168 96.4515 19.3618 96.68C19.6068 96.9122 19.7509 97.2424 19.7977 97.6704C19.7977 97.6958 19.8193 97.7067 19.8625 97.7067C19.9058 97.7067 19.9274 97.6958 19.9274 97.6704L19.9058 96.183C19.9058 96.1105 19.8697 96.0742 19.7977 96.0742H14.9954C14.9774 96.0742 14.9702 96.0996 14.9702 96.1468C14.9702 96.1939 14.9774 96.2157 14.9954 96.2157C15.2872 96.2157 15.4998 96.2375 15.6331 96.281C15.7664 96.3245 15.8565 96.4043 15.9069 96.5132C15.9537 96.6256 15.9753 96.7998 15.9753 97.0392V102.557C15.9753 102.797 15.9537 102.971 15.9069 103.087C15.8565 103.203 15.7664 103.279 15.6331 103.319C15.4998 103.359 15.2872 103.381 14.9954 103.381C14.9774 103.381 14.9702 103.402 14.9702 103.45C14.9702 103.497 14.9774 103.522 14.9954 103.522H19.9994C20.0715 103.522 20.1219 103.508 20.1471 103.482C20.176 103.453 20.1904 103.406 20.1904 103.344C20.1904 102.797 20.2264 102.263 20.2948 101.748C20.2948 101.723 20.2732 101.708 20.2264 101.705ZM29.4779 103.45C29.4779 103.402 29.4671 103.381 29.4418 103.381C29.1428 103.381 28.9267 103.359 28.7862 103.319C28.6493 103.279 28.5556 103.203 28.5016 103.087C28.4511 102.971 28.4259 102.797 28.4259 102.557V97.0392C28.4259 96.7998 28.4511 96.6256 28.5016 96.5132C28.5556 96.4043 28.6493 96.3245 28.7862 96.281C28.9267 96.2375 29.1428 96.2157 29.4418 96.2157C29.4671 96.2157 29.4779 96.1939 29.4779 96.1468C29.4779 96.0996 29.4671 96.0742 29.4418 96.0742L28.851 96.0851C28.5052 96.1032 28.2242 96.1105 28.0116 96.1105C27.7522 96.1105 27.446 96.1032 27.1002 96.0851L26.5454 96.0742C26.5201 96.0742 26.5093 96.0996 26.5093 96.1468C26.5093 96.1939 26.5201 96.2157 26.5454 96.2157C26.8444 96.2157 27.0641 96.2411 27.2082 96.2882C27.3487 96.3354 27.446 96.4188 27.4964 96.5313C27.5469 96.6474 27.5721 96.8252 27.5721 97.0646V99.517H23.1589V97.0646C23.1589 96.8252 23.1841 96.6474 23.2382 96.5313C23.2886 96.4188 23.3859 96.3354 23.5264 96.2882C23.6669 96.2411 23.8902 96.2157 24.1893 96.2157C24.2037 96.2157 24.2145 96.1939 24.2145 96.1468C24.2145 96.0996 24.2037 96.0742 24.1893 96.0742L23.6092 96.0851C23.2454 96.1032 22.9464 96.1105 22.7086 96.1105C22.496 96.1105 22.2258 96.1032 21.8944 96.0851L21.2892 96.0742C21.2748 96.0742 21.2675 96.0996 21.2675 96.1468C21.2675 96.1939 21.2748 96.2157 21.2892 96.2157C21.581 96.2157 21.7971 96.2375 21.934 96.281C22.0745 96.3245 22.1682 96.4043 22.2186 96.5132C22.2691 96.6256 22.2943 96.7998 22.2943 97.0392V102.557C22.2943 102.797 22.2691 102.971 22.2186 103.087C22.1682 103.203 22.0745 103.279 21.934 103.319C21.7971 103.359 21.5774 103.381 21.2784 103.381C21.2639 103.381 21.2531 103.402 21.2531 103.45C21.2531 103.497 21.2639 103.522 21.2784 103.522C21.5377 103.522 21.7395 103.518 21.88 103.511L22.7086 103.497L23.5984 103.511C23.7389 103.518 23.9371 103.522 24.1893 103.522C24.2037 103.522 24.2145 103.497 24.2145 103.45C24.2145 103.402 24.2037 103.381 24.1893 103.381C23.883 103.381 23.6597 103.359 23.5192 103.319C23.3823 103.279 23.2886 103.203 23.2382 103.087C23.1841 102.971 23.1589 102.797 23.1589 102.557V99.7818H27.5721V102.557C27.5721 102.797 27.5469 102.971 27.4964 103.087C27.446 103.203 27.3523 103.279 27.2118 103.319C27.0749 103.359 26.8516 103.381 26.5454 103.381C26.5201 103.381 26.5093 103.402 26.5093 103.45C26.5093 103.497 26.5201 103.522 26.5454 103.522C26.7795 103.522 26.9669 103.518 27.1002 103.511L28.0116 103.497L28.851 103.511C28.9951 103.518 29.1897 103.522 29.4418 103.522C29.4671 103.522 29.4779 103.497 29.4779 103.45ZM38.225 103.45C38.225 103.402 38.207 103.381 38.1781 103.381C37.9332 103.381 37.717 103.275 37.5261 103.069C37.3387 102.862 37.1082 102.47 36.8416 101.89L34.0243 95.9799C34.0171 95.9545 33.9883 95.9436 33.9415 95.9436C33.8947 95.9436 33.8622 95.9545 33.8442 95.9799L31.3476 101.864C31.1747 102.278 31.0162 102.593 30.8757 102.807C30.7352 103.021 30.5839 103.17 30.4326 103.254C30.2776 103.337 30.0903 103.381 29.8706 103.381C29.8309 103.381 29.8093 103.402 29.8093 103.45C29.8093 103.497 29.8309 103.522 29.8706 103.522C30.0363 103.522 30.238 103.515 30.4722 103.497C30.7568 103.482 30.9982 103.475 31.1963 103.475C31.4161 103.475 31.6755 103.482 31.9745 103.497C32.2447 103.515 32.45 103.522 32.5905 103.522C32.6301 103.522 32.6518 103.497 32.6518 103.45C32.6518 103.402 32.6301 103.381 32.5905 103.381C31.8268 103.381 31.4449 103.13 31.4449 102.63C31.4449 102.43 31.4953 102.212 31.5962 101.973L32.2951 100.341H35.1231L36.1427 102.485C36.2507 102.724 36.3084 102.902 36.3084 103.021C36.3084 103.156 36.2471 103.25 36.1247 103.301C36.0022 103.352 35.7968 103.381 35.5158 103.381C35.4834 103.381 35.4654 103.402 35.4654 103.45C35.4654 103.497 35.4834 103.522 35.5158 103.522C35.6563 103.522 35.8545 103.515 36.1066 103.497C36.3732 103.482 36.6002 103.475 36.7803 103.475C36.9316 103.475 37.1622 103.482 37.4792 103.497C37.7963 103.515 38.0268 103.522 38.1781 103.522C38.207 103.522 38.225 103.497 38.225 103.45ZM32.4032 100.09L33.6317 97.2061L35.0042 100.09H32.4032ZM43.7874 103.533C44.0936 103.558 44.3674 103.569 44.6016 103.569C45.3293 103.569 45.9958 103.41 46.6082 103.087C47.2207 102.764 47.707 102.307 48.0637 101.715C48.4239 101.124 48.6041 100.442 48.6041 99.673C48.6041 98.991 48.4311 98.3742 48.0817 97.8264C47.7358 97.2786 47.2459 96.8433 46.6154 96.5277C45.985 96.2084 45.2572 96.0488 44.4358 96.0488C44.3098 96.0488 44.0576 96.0597 43.6793 96.0742C43.3875 96.0996 43.0921 96.1105 42.7931 96.1105C42.5949 96.1105 42.3247 96.1032 41.9753 96.0851L41.3844 96.0742C41.37 96.0742 41.3592 96.0996 41.3592 96.1468C41.3592 96.1939 41.37 96.2157 41.3844 96.2157C41.6763 96.2157 41.8888 96.2375 42.0221 96.281C42.159 96.3245 42.2491 96.4043 42.2959 96.5132C42.3427 96.6256 42.368 96.7998 42.368 97.0392V102.557C42.368 102.797 42.3391 102.971 42.2887 103.087C42.2383 103.203 42.1446 103.279 42.0113 103.319C41.878 103.359 41.6655 103.381 41.3736 103.381C41.3556 103.381 41.3484 103.402 41.3484 103.45C41.3484 103.497 41.3556 103.522 41.3736 103.522C41.6258 103.522 41.8276 103.518 41.9753 103.511L42.7931 103.497C42.9984 103.497 43.1857 103.504 43.3551 103.511C43.5244 103.518 43.6685 103.526 43.7874 103.533ZM46.1002 102.982C45.6319 103.246 45.0915 103.381 44.4863 103.381C43.9891 103.381 43.6541 103.308 43.4848 103.163C43.3154 103.021 43.229 102.775 43.229 102.427V97.0646C43.229 96.8252 43.2722 96.6474 43.3623 96.5313C43.4487 96.4188 43.582 96.339 43.7622 96.2991C43.9459 96.2592 44.2053 96.2411 44.5439 96.2411C45.1528 96.2411 45.686 96.4043 46.1471 96.7308C46.6082 97.0537 46.9649 97.4963 47.2171 98.0586C47.4692 98.6173 47.5989 99.2449 47.5989 99.9342C47.5989 100.66 47.4656 101.28 47.199 101.799C46.9361 102.321 46.5686 102.713 46.1002 102.982ZM57.3944 103.45C57.3944 103.402 57.38 103.381 57.3476 103.381C57.1026 103.381 56.8864 103.275 56.6991 103.069C56.5081 102.862 56.2812 102.47 56.011 101.89L53.1938 95.9799C53.1866 95.9545 53.1577 95.9436 53.1109 95.9436C53.0641 95.9436 53.0316 95.9545 53.0172 95.9799L50.5206 101.864C50.3477 102.278 50.1892 102.593 50.0451 102.807C49.9046 103.021 49.7569 103.17 49.602 103.254C49.4507 103.337 49.2633 103.381 49.04 103.381C49.0003 103.381 48.9823 103.402 48.9823 103.45C48.9823 103.497 49.0003 103.522 49.04 103.522C49.2057 103.522 49.4074 103.515 49.6452 103.497C49.9298 103.482 50.1676 103.475 50.3657 103.475C50.5855 103.475 50.8485 103.482 51.1475 103.497C51.4141 103.515 51.6194 103.522 51.7635 103.522C51.8032 103.522 51.8212 103.497 51.8212 103.45C51.8212 103.402 51.8032 103.381 51.7635 103.381C50.9962 103.381 50.6143 103.13 50.6143 102.63C50.6143 102.43 50.6647 102.212 50.7692 101.973L51.4681 100.341H54.2962L55.3121 102.485C55.4238 102.724 55.4778 102.902 55.4778 103.021C55.4778 103.156 55.4166 103.25 55.2941 103.301C55.1716 103.352 54.9698 103.381 54.6852 103.381C54.6528 103.381 54.6384 103.402 54.6384 103.45C54.6384 103.497 54.6528 103.522 54.6852 103.522C54.8293 103.522 55.0239 103.515 55.2761 103.497C55.5463 103.482 55.7696 103.475 55.9534 103.475C56.1011 103.475 56.3352 103.482 56.6486 103.497C56.9657 103.515 57.1998 103.522 57.3476 103.522C57.38 103.522 57.3944 103.497 57.3944 103.45ZM51.5726 100.09L52.8047 97.2061L54.1773 100.09H51.5726ZM65.9758 103.45C65.9758 103.402 65.965 103.381 65.9397 103.381C65.6407 103.381 65.421 103.359 65.2841 103.319C65.1436 103.279 65.0499 103.203 64.9995 103.087C64.949 102.971 64.9238 102.797 64.9238 102.557V97.0392C64.9238 96.7998 64.949 96.6256 64.9995 96.5132C65.0499 96.4043 65.1436 96.3245 65.2841 96.281C65.421 96.2375 65.6407 96.2157 65.9397 96.2157C65.965 96.2157 65.9758 96.1939 65.9758 96.1468C65.9758 96.0996 65.965 96.0742 65.9397 96.0742L65.3489 96.0851C64.9995 96.1032 64.7221 96.1105 64.5095 96.1105C64.2465 96.1105 63.9439 96.1032 63.5981 96.0851L63.0397 96.0742C63.018 96.0742 63.0036 96.0996 63.0036 96.1468C63.0036 96.1939 63.018 96.2157 63.0397 96.2157C63.3387 96.2157 63.562 96.2411 63.7025 96.2882C63.8466 96.3354 63.9403 96.4188 63.9943 96.5313C64.0448 96.6474 64.07 96.8252 64.07 97.0646V99.517H59.6568V97.0646C59.6568 96.8252 59.682 96.6474 59.7325 96.5313C59.7829 96.4188 59.8802 96.3354 60.0243 96.2882C60.1648 96.2411 60.3845 96.2157 60.6872 96.2157C60.7016 96.2157 60.7088 96.1939 60.7088 96.1468C60.7088 96.0996 60.7016 96.0742 60.6872 96.0742L60.1071 96.0851C59.7433 96.1032 59.4443 96.1105 59.2065 96.1105C58.9939 96.1105 58.7201 96.1032 58.3887 96.0851L57.7871 96.0742C57.7691 96.0742 57.7619 96.0996 57.7619 96.1468C57.7619 96.1939 57.7691 96.2157 57.7871 96.2157C58.0789 96.2157 58.2914 96.2375 58.4319 96.281C58.5688 96.3245 58.6625 96.4043 58.7165 96.5132C58.767 96.6256 58.7922 96.7998 58.7922 97.0392V102.557C58.7922 102.797 58.767 102.971 58.7165 103.087C58.6625 103.203 58.5688 103.279 58.4319 103.319C58.2914 103.359 58.0753 103.381 57.7763 103.381C57.7583 103.381 57.751 103.402 57.751 103.45C57.751 103.497 57.7583 103.522 57.7763 103.522C58.0357 103.522 58.2374 103.518 58.3779 103.511L59.2065 103.497L60.0927 103.511C60.2368 103.518 60.435 103.522 60.6872 103.522C60.7016 103.522 60.7088 103.497 60.7088 103.45C60.7088 103.402 60.7016 103.381 60.6872 103.381C60.3773 103.381 60.154 103.359 60.0171 103.319C59.8802 103.279 59.7829 103.203 59.7325 103.087C59.682 102.971 59.6568 102.797 59.6568 102.557V99.7818H64.07V102.557C64.07 102.797 64.0448 102.971 63.9943 103.087C63.9403 103.203 63.8466 103.279 63.7097 103.319C63.5728 103.359 63.3495 103.381 63.0397 103.381C63.018 103.381 63.0036 103.402 63.0036 103.45C63.0036 103.497 63.018 103.522 63.0397 103.522C63.2774 103.522 63.4612 103.518 63.5981 103.511L64.5095 103.497L65.3489 103.511C65.4894 103.518 65.6876 103.522 65.9397 103.522C65.965 103.522 65.9758 103.497 65.9758 103.45ZM75.0651 103.45C75.0651 103.402 75.0507 103.381 75.0291 103.381C74.7373 103.381 74.5211 103.359 74.377 103.319C74.2365 103.279 74.1393 103.203 74.0888 103.087C74.0348 102.971 74.0096 102.797 74.0096 102.557V96.0488C74.0096 96.027 73.9916 96.0053 73.9591 95.9908C73.9231 95.9763 73.8799 95.9654 73.833 95.9654C73.761 95.9654 73.7141 95.9835 73.6925 96.0162L68.6489 102.485V97.0392C68.6489 96.7998 68.6741 96.6256 68.7282 96.5132C68.7786 96.4043 68.8723 96.3245 69.0128 96.281C69.1497 96.2375 69.373 96.2157 69.6792 96.2157C69.7045 96.2157 69.7153 96.1939 69.7153 96.1468C69.7153 96.0996 69.7045 96.0742 69.6792 96.0742L69.1244 96.0851C68.775 96.1032 68.4724 96.1105 68.213 96.1105C68.0148 96.1105 67.741 96.1032 67.3952 96.0851L66.7792 96.0742C66.7575 96.0742 66.7431 96.0996 66.7431 96.1468C66.7431 96.1939 66.7575 96.2157 66.7792 96.2157C67.071 96.2157 67.2871 96.2375 67.424 96.281C67.5645 96.3245 67.6582 96.4043 67.7086 96.5132C67.7591 96.6256 67.7879 96.7998 67.7879 97.0392V103.595C67.7879 103.616 67.8059 103.638 67.8455 103.653C67.8851 103.671 67.9284 103.678 67.9752 103.678C68.0545 103.678 68.1049 103.664 68.1301 103.642L73.1485 97.1807V102.557C73.1485 102.804 73.1233 102.982 73.0765 103.094C73.0297 103.203 72.936 103.279 72.7991 103.319C72.6586 103.359 72.4352 103.381 72.129 103.381C72.1038 103.381 72.093 103.402 72.093 103.45C72.093 103.497 72.1038 103.522 72.129 103.522C72.3668 103.522 72.5541 103.518 72.6982 103.511L73.5845 103.497L74.4383 103.511C74.5788 103.518 74.7769 103.522 75.0291 103.522C75.0507 103.522 75.0651 103.497 75.0651 103.45ZM83.8086 103.45C83.8086 103.402 83.7942 103.381 83.7618 103.381C83.5168 103.381 83.3007 103.275 83.1097 103.069C82.9224 102.862 82.6918 102.47 82.4252 101.89L79.608 95.9799C79.6008 95.9545 79.572 95.9436 79.5251 95.9436C79.4783 95.9436 79.4459 95.9545 79.4315 95.9799L76.9349 101.864C76.762 102.278 76.6034 102.593 76.4593 102.807C76.3188 103.021 76.1711 103.17 76.0162 103.254C75.8613 103.337 75.674 103.381 75.4542 103.381C75.4146 103.381 75.3966 103.402 75.3966 103.45C75.3966 103.497 75.4146 103.522 75.4542 103.522C75.6199 103.522 75.8217 103.515 76.0594 103.497C76.3404 103.482 76.5818 103.475 76.78 103.475C76.9997 103.475 77.2627 103.482 77.5617 103.497C77.8283 103.515 78.0337 103.522 78.1778 103.522C78.2174 103.522 78.2354 103.497 78.2354 103.45C78.2354 103.402 78.2174 103.381 78.1778 103.381C77.4104 103.381 77.0285 103.13 77.0285 102.63C77.0285 102.43 77.079 102.212 77.1834 101.973L79.2189 97.2061L81.7263 102.485C81.838 102.724 81.892 102.902 81.892 103.021C81.892 103.156 81.8308 103.25 81.7083 103.301C81.5858 103.352 81.3841 103.381 81.0995 103.381C81.0671 103.381 81.0526 103.402 81.0526 103.45C81.0526 103.497 81.0671 103.522 81.0995 103.522C81.24 103.522 81.4381 103.515 81.6903 103.497C81.9605 103.482 82.1839 103.475 82.364 103.475C82.5153 103.475 82.7495 103.482 83.0629 103.497C83.3799 103.515 83.6105 103.522 83.7618 103.522C83.7942 103.522 83.8086 103.497 83.8086 103.45ZM86.017 103.148C86.5898 103.493 87.2419 103.664 87.9768 103.664C88.7154 103.664 89.4035 103.489 90.0411 103.141C90.6752 102.793 91.1831 102.314 91.5614 101.712C91.9397 101.106 92.1306 100.442 92.1306 99.7202C92.1306 99.0708 91.9757 98.4541 91.6731 97.8736C91.3705 97.2932 90.9346 96.8252 90.3654 96.4733C89.7961 96.1214 89.1405 95.9436 88.3875 95.9436C87.7174 95.9436 87.0618 96.0887 86.4205 96.3826C85.7756 96.6764 85.2497 97.1154 84.839 97.6995C84.4283 98.2835 84.2229 98.9873 84.2229 99.8036C84.2229 100.504 84.3778 101.15 84.6913 101.741C85.0011 102.332 85.4442 102.8 86.017 103.148ZM89.7925 103.011C89.3782 103.272 88.9099 103.402 88.3875 103.402C87.7751 103.402 87.2239 103.225 86.7447 102.873C86.262 102.521 85.8873 102.035 85.6207 101.425C85.3505 100.812 85.2172 100.134 85.2172 99.3864C85.2172 98.4033 85.455 97.6305 85.927 97.0682C86.4025 96.5095 87.0582 96.2302 87.9048 96.2302C88.5496 96.2302 89.1189 96.3935 89.6088 96.7163C90.0988 97.0428 90.4734 97.4963 90.74 98.0768C91.003 98.6572 91.1363 99.3138 91.1363 100.054C91.1363 100.754 91.0138 101.356 90.7724 101.861C90.5347 102.365 90.2068 102.746 89.7925 103.011ZM98.219 99.9632C97.8335 99.5968 97.3292 99.3828 96.6951 99.3284C97.131 99.1615 97.4697 98.9293 97.7146 98.6318C97.9596 98.3307 98.0821 97.9933 98.0821 97.6124C98.0821 97.1335 97.9128 96.7526 97.5742 96.466C97.2319 96.183 96.7239 96.0379 96.0466 96.0379C95.8233 96.0379 95.5927 96.0488 95.3477 96.0742C95.2613 96.0815 95.1568 96.0887 95.0343 96.0996C94.9118 96.1069 94.7785 96.1105 94.638 96.1105C94.4255 96.1105 94.1517 96.1032 93.8202 96.0851L93.2402 96.0742C93.2186 96.0742 93.2042 96.0996 93.2042 96.1468C93.2042 96.1939 93.2186 96.2157 93.2402 96.2157C93.5248 96.2157 93.7338 96.2375 93.8671 96.281C94.004 96.3245 94.094 96.4043 94.1409 96.5132C94.1877 96.6256 94.2129 96.7998 94.2129 97.0392V102.557C94.2129 102.797 94.1877 102.971 94.1337 103.08C94.0832 103.192 93.9896 103.268 93.8491 103.315C93.7122 103.359 93.5032 103.381 93.2186 103.381C93.2006 103.381 93.1934 103.402 93.1934 103.45C93.1934 103.497 93.2006 103.522 93.2186 103.522C93.4708 103.522 93.6725 103.518 93.8202 103.511L94.638 103.497C94.8254 103.497 94.9983 103.504 95.146 103.511C95.2973 103.518 95.427 103.526 95.5387 103.533C95.8377 103.558 96.1115 103.569 96.3673 103.569C96.8248 103.569 97.2355 103.471 97.603 103.279C97.9704 103.083 98.2586 102.815 98.4712 102.474C98.6838 102.133 98.7918 101.752 98.7918 101.331C98.7918 100.79 98.6009 100.333 98.219 99.9632ZM95.3658 96.281C95.463 96.2483 95.6107 96.2302 95.8089 96.2302C96.2916 96.2302 96.6447 96.3608 96.8752 96.6293C97.1022 96.8941 97.2175 97.2496 97.2175 97.6958C97.2175 98.1856 97.0842 98.5847 96.8212 98.8858C96.5582 99.1869 96.1511 99.3392 95.6071 99.3392L95.074 99.3284V97.0646C95.074 96.8179 95.0992 96.6329 95.146 96.5132C95.1928 96.3971 95.2685 96.3173 95.3658 96.281ZM97.4553 102.898C97.1779 103.196 96.7564 103.344 96.1871 103.344C95.8809 103.344 95.6468 103.319 95.4882 103.265C95.3333 103.214 95.2253 103.134 95.164 103.021C95.1064 102.909 95.074 102.757 95.074 102.557V99.6258C95.4234 99.6004 95.708 99.5932 95.9278 99.6004C96.5366 99.6077 97.0121 99.7963 97.3544 100.166C97.6966 100.536 97.8696 101.023 97.8696 101.628C97.8696 102.176 97.7291 102.597 97.4553 102.898ZM107.751 103.45C107.751 103.402 107.733 103.381 107.701 103.381C107.46 103.381 107.24 103.275 107.053 103.069C106.862 102.862 106.635 102.47 106.364 101.89L103.547 95.9799C103.54 95.9545 103.515 95.9436 103.464 95.9436C103.418 95.9436 103.389 95.9545 103.371 95.9799L100.874 101.864C100.701 102.278 100.543 102.593 100.402 102.807C100.258 103.021 100.11 103.17 99.9555 103.254C99.8042 103.337 99.6168 103.381 99.3935 103.381C99.3538 103.381 99.3358 103.402 99.3358 103.45C99.3358 103.497 99.3538 103.522 99.3935 103.522C99.5592 103.522 99.7609 103.515 99.9987 103.497C100.283 103.482 100.525 103.475 100.719 103.475C100.943 103.475 101.202 103.482 101.501 103.497C101.771 103.515 101.977 103.522 102.117 103.522C102.157 103.522 102.175 103.497 102.175 103.45C102.175 103.402 102.157 103.381 102.117 103.381C101.353 103.381 100.968 103.13 100.968 102.63C100.968 102.43 101.022 102.212 101.123 101.973L101.822 100.341H104.65L105.666 102.485C105.777 102.724 105.831 102.902 105.831 103.021C105.831 103.156 105.77 103.25 105.651 103.301C105.529 103.352 105.323 103.381 105.039 103.381C105.01 103.381 104.992 103.402 104.992 103.45C104.992 103.497 105.01 103.522 105.039 103.522C105.183 103.522 105.377 103.515 105.633 103.497C105.9 103.482 106.123 103.475 106.307 103.475C106.455 103.475 106.689 103.482 107.006 103.497C107.319 103.515 107.553 103.522 107.701 103.522C107.733 103.522 107.751 103.497 107.751 103.45ZM101.926 100.09L103.158 97.2061L104.531 100.09H101.926Z" fill="white"/>
</g>
<defs>
<clipPath id="clip0_156_973">
<rect width="108" height="104" fill="white"/>
</clipPath>
</defs>
</svg>
