<svg width="117" height="112" viewBox="0 0 117 112" fill="none" xmlns="http://www.w3.org/2000/svg">
<rect width="117" height="112" fill="#216E8F"/>
<path d="M37.7975 50.1802C39.2238 51.4173 40.7619 52.5206 42.3922 53.4761C42.8065 53.7256 43.2317 53.9583 43.6648 54.1773C43.4368 54.1792 43.2118 54.1723 42.9809 54.1812C42.3872 54.2187 41.7995 54.269 41.1791 54.3646C40.861 54.4179 40.5577 54.4613 40.1563 54.5984C40.0245 54.6565 39.9482 54.6743 39.7767 54.7788C39.6865 54.838 39.5983 54.9041 39.518 54.9751C39.365 55.1346 39.2528 55.3284 39.191 55.5402C39.1315 55.7561 39.1682 56.0855 39.2762 56.3163C39.3377 56.4425 39.3278 56.412 39.3565 56.4672L39.4764 56.6773C40.8084 58.9248 43.1216 60.2414 45.2991 61.0836C46.8223 61.671 48.4113 62.073 50.0315 62.2808C49.5558 62.4711 49.0761 62.6536 48.5815 62.7946C48.2822 62.8804 47.98 62.9564 47.6747 63.0224L47.2158 63.1151C47.0355 63.1842 46.8789 63.1023 46.5231 63.4307C46.4299 63.5195 46.3903 63.7118 46.4378 63.8873C46.4785 63.9928 46.5359 64.0648 46.5914 64.1299C46.6816 64.2128 46.7748 64.2828 46.8531 64.3262C47.0176 64.4278 47.1722 64.4948 47.3278 64.5648C47.639 64.698 47.9482 64.8055 48.2604 64.9071C49.5221 65.3203 50.8333 65.4514 52.1197 65.5057L55.9741 65.5767C53.4369 65.266 50.7976 65.2611 48.4765 64.3124C48.1879 64.1986 47.9048 64.0716 47.6281 63.9317C47.5984 63.9159 47.5746 63.8982 47.5449 63.8824L47.8253 63.8459C49.4689 63.606 51.0643 63.1102 52.5528 62.3765C52.6682 62.3201 52.7616 62.2275 52.8187 62.113C52.8758 61.9984 52.8935 61.8684 52.8689 61.7429C52.8443 61.6174 52.7788 61.5035 52.6827 61.4187C52.5865 61.334 52.4649 61.2831 52.3368 61.2739L52.2922 61.271C50.0979 61.1043 47.9373 60.4889 45.9601 59.5589C44.2257 58.768 42.7242 57.6674 41.6628 56.2926C42.1246 56.2266 42.6132 56.1812 43.1018 56.1506C44.192 56.1102 45.3347 56.1664 46.4477 56.1684C47.5657 56.1536 48.6926 56.2463 49.8204 56.341L50.9364 56.4277C51.6856 56.5145 52.4399 56.5727 53.1931 56.6023L53.2 56.6033C53.2367 56.6043 53.2734 56.6082 53.309 56.6092C53.4387 56.6164 53.5686 56.5981 53.6912 56.5553C53.8138 56.5126 53.9267 56.4462 54.0235 56.3601C54.1203 56.2739 54.1991 56.1696 54.2554 56.0531C54.3117 55.9366 54.3444 55.8103 54.3517 55.6812C54.3589 55.5521 54.3405 55.4229 54.2975 55.301C54.2546 55.179 54.1879 55.0666 54.1013 54.9703C54.0147 54.8739 53.9099 54.7955 53.7928 54.7395C53.6758 54.6834 53.5487 54.6509 53.4191 54.6437L51.0801 54.4623C50.1019 54.3459 49.1316 54.1674 48.1861 53.8636C46.528 53.3488 44.8977 52.6842 43.3902 51.7739C41.8681 50.8809 40.4319 49.8503 39.0998 48.695C38.8966 48.5185 38.6974 48.3321 38.4972 48.1496C39.3292 48.4092 40.1749 48.6231 41.0304 48.7907C42.2198 49.0244 43.4249 49.1703 44.635 49.2305C45.857 49.2897 47.0305 49.2847 48.3179 49.1358C48.5615 49.1076 48.7858 48.9903 48.9473 48.8067C49.1088 48.6231 49.1959 48.3863 49.1917 48.1423C49.1875 47.8984 49.0923 47.6647 48.9245 47.4867C48.7568 47.3087 48.5286 47.1991 48.2842 47.1792L48.2258 47.1743C46.757 47.055 45.2981 46.7463 43.9026 46.1901C42.5061 45.6036 41.1787 44.8661 39.9442 43.9908C38.7132 43.0926 37.5572 42.097 36.4873 41.0135C37.0294 41.194 37.5725 41.3597 38.1176 41.5076C40.1779 42.0685 42.2677 42.5162 44.3773 42.8488C44.6161 42.8848 44.8599 42.8328 45.0628 42.7024C45.2656 42.5721 45.4136 42.3724 45.4789 42.1411C45.5442 41.9097 45.5223 41.6626 45.4172 41.4462C45.3122 41.2298 45.1313 41.0591 44.9086 40.9662L44.8333 40.9356C44.0979 40.6368 43.3337 40.4001 42.6211 40.0559C41.9185 39.694 41.188 39.3774 40.5408 38.9238C39.1831 38.1161 37.9888 37.0678 36.9194 35.9198C35.847 34.7623 34.9417 33.4618 34.2296 32.0559C34.0908 31.7887 33.963 31.5105 33.8371 31.2324C34.4645 31.7029 35.1057 32.1447 35.7588 32.5579C36.6409 33.1131 37.5478 33.6141 38.4655 34.0894C39.3902 34.5638 40.304 35.0046 41.2852 35.4179C41.5213 35.5164 41.7866 35.5201 42.0255 35.4283C42.2644 35.3365 42.4582 35.1563 42.5665 34.9254C42.6748 34.6945 42.689 34.4308 42.6063 34.1897C42.5235 33.9485 42.3502 33.7486 42.1226 33.6319L42.1087 33.625C40.7255 32.9233 39.579 31.8341 38.8104 30.4918C38.0106 29.1486 37.5537 27.5746 37.298 25.9652C37.0522 24.3626 37.0066 22.7107 37.1018 21.0598C37.9771 23.46 39.1901 25.7244 40.7044 27.7857C43.2128 31.2295 46.5508 34.2058 50.2426 36.2098C53.8948 38.2709 57.5816 40.0757 60.656 42.7847C62.1951 44.1161 63.6074 45.6191 64.6719 47.3528C65.7611 49.0619 66.4221 51.0914 66.2447 53.1684C66.6065 51.1181 66.1189 48.9544 65.1446 47.0905C64.1833 45.2058 62.8235 43.552 61.3359 42.0618C58.3616 39.0352 54.647 36.8755 51.2367 34.6141C49.5459 33.4504 47.8481 32.3557 46.3367 31.0539C44.8432 29.7531 43.4883 28.2324 42.308 26.6269C39.9462 23.404 38.3188 19.6466 37.8104 15.7166L37.8084 15.6959C37.7778 15.4676 37.6675 15.2572 37.4969 15.1014C37.3263 14.9457 37.1061 14.8545 36.8748 14.8438C36.6435 14.8331 36.4158 14.9036 36.2314 15.043C36.047 15.1823 35.9176 15.3816 35.8659 15.6062C35.4728 17.3485 35.2248 19.1201 35.1245 20.903C35.0215 22.6772 35.0651 24.475 35.3396 26.267C35.5894 27.8301 36.0304 29.4021 36.7807 30.8666C35.1444 29.8409 33.5646 28.6595 32.4982 27.2512L32.4605 27.2009C32.327 27.0255 32.1378 26.9001 31.9237 26.8451C31.7095 26.7901 31.483 26.8087 31.2808 26.8979C31.0787 26.9871 30.9127 27.1416 30.8099 27.3364C30.707 27.5312 30.6733 27.7548 30.7142 27.9711C31.0621 29.7985 31.6656 31.3843 32.4655 32.9553C33.2583 34.516 34.2638 35.9603 35.4536 37.2472C36.1414 37.9869 36.8837 38.6802 37.6736 39.3143C37.033 39.1193 36.3999 38.9005 35.7757 38.6585C34.8619 38.2985 33.9511 37.8508 33.3545 37.3192L33.3267 37.2936C33.146 37.1323 32.912 37.0429 32.6693 37.0424C32.4265 37.0418 32.1921 37.1302 32.0107 37.2906C31.8292 37.451 31.7135 37.6723 31.6855 37.9122C31.6575 38.1521 31.7192 38.3939 31.8589 38.5914C32.8401 39.983 33.8956 41.191 35.0502 42.3715C36.2071 43.5447 37.4584 44.622 38.7916 45.5924C39.3099 45.9593 39.8501 46.2995 40.4001 46.624C39.6489 46.4465 38.9036 46.2443 38.1801 45.983C37.1216 45.6319 36.1196 45.1476 35.1325 44.6417L35.0859 44.6171C34.8861 44.5153 34.6575 44.4845 34.4377 44.5297C34.2179 44.5749 34.0203 44.6934 33.8774 44.8656C33.7345 45.0378 33.655 45.2533 33.652 45.4766C33.649 45.6999 33.7227 45.9175 33.8609 46.0934C35.07 47.6299 36.3723 48.9327 37.7975 50.1802Z" fill="white"/>
<path d="M85.2923 51.1979H85.2655C84.8096 51.1959 83.9226 50.7442 83.3844 50.2442C83.2559 50.1316 83.1388 50.0067 83.0346 49.8714L82.7234 49.334C82.4402 48.8419 82.0907 48.3906 81.6847 47.9927C80.8457 47.184 79.7619 46.6734 78.6014 46.5401C77.4111 46.4533 76.3864 46.7097 75.3982 47.0953C73.4597 47.9188 71.9552 49.2925 70.7035 50.7787C69.4388 52.2639 68.4101 53.9109 67.5568 55.6229C68.6302 54.055 69.8758 52.6109 71.2704 51.3172C72.64 50.042 74.2179 48.975 75.8888 48.471C76.2992 48.3563 76.7191 48.2791 77.1436 48.2403C77.5588 48.2501 77.9899 48.1998 78.3319 48.2955C79.0573 48.4513 79.7135 48.905 80.2665 49.4424C80.544 49.7136 80.7967 50.0144 81.0009 50.3419L81.43 51.0302C81.6035 51.2659 81.7838 51.4503 81.9682 51.6239C81.215 51.8665 80.4865 52.2353 79.8661 52.7097C78.2803 53.8774 77.3507 55.6131 76.6381 57.1367C75.8868 58.6871 75.2257 60.2792 74.6579 61.905C74.0801 63.5352 73.6638 65.2166 73.1911 66.7837C72.7144 68.3547 72.1435 69.8517 71.2684 71.1052C70.4051 72.3656 69.2238 73.3439 67.8224 74.0174C66.4279 74.7009 64.8749 75.0658 63.2643 75.263C61.6639 75.4627 60.0449 75.4657 58.4437 75.2719C58.186 75.2403 57.9085 75.3093 57.6924 75.4859L51.3019 80.6979C50.2514 81.5786 49.2186 82.4484 48.1463 83.2255C47.6101 83.6151 47.065 83.981 46.506 84.3153C46.3207 84.4267 46.1304 84.5283 45.9421 84.6309C45.839 84.1644 45.6646 83.6535 45.3742 83.1999C45.0868 82.7462 44.6963 82.3005 44.1314 81.9898C43.9854 81.9074 43.8305 81.8419 43.6695 81.7946C43.4822 81.7502 43.2453 81.694 43.0887 81.7019C42.7915 81.7008 42.4953 81.7359 42.2067 81.8064C41.2314 82.0658 40.4802 82.4435 39.7339 82.7344C39.3903 82.8772 39.0381 82.9988 38.6794 83.0983L38.6338 83.1082C38.7359 82.9632 38.8449 82.8153 38.9569 82.6703C39.4562 82.0355 39.9772 81.4177 40.5189 80.8182C41.6203 79.5964 42.7531 78.4031 43.9163 77.2393C44.0493 77.105 44.1409 76.9358 44.1804 76.7514C44.22 76.567 44.2057 76.3753 44.1394 76.1987C44.073 76.0221 43.9574 75.8681 43.806 75.7547C43.6546 75.6414 43.4739 75.5734 43.285 75.5589L43.2513 75.5559L42.0927 75.4701C41.7161 75.406 41.3325 75.3636 40.9609 75.2847C40.2235 75.1151 39.4951 74.909 38.834 74.5865C38.2053 74.2903 37.6231 73.9049 37.1055 73.4425C38.1303 73.5766 39.1591 73.6614 40.1958 73.5805C42.0303 73.5076 43.841 73.1732 45.5942 72.7157C47.3514 72.26 49.0392 71.5884 50.6379 70.7798C52.2355 69.9701 53.739 68.977 55.0601 67.8005C53.5963 68.7955 51.9858 69.5293 50.3534 70.1417C48.7171 70.7452 47.0313 71.1999 45.3207 71.4375C43.614 71.6772 41.8945 71.7945 40.1918 71.6644C39.3405 71.6348 38.496 71.548 37.6457 71.5105C36.7963 71.4553 35.9608 71.2669 35.1164 71.1545L35.0064 71.1397C34.8403 71.1181 34.6714 71.1399 34.5163 71.203C34.3613 71.2662 34.2255 71.3685 34.1223 71.4998C34.0191 71.6312 33.9522 71.787 33.928 71.952C33.9039 72.117 33.9234 72.2853 33.9846 72.4405C34.2116 73.0184 34.4465 73.3665 34.7349 73.7729C35.0163 74.1594 35.3374 74.5086 35.6814 74.8281C36.3654 75.4551 37.1418 75.9743 37.9837 76.3675C38.8102 76.7679 39.6814 77.0164 40.5526 77.2147C40.7309 77.2521 40.9093 77.2807 41.0877 77.3093C40.3918 78.0305 39.7082 78.7634 39.0372 79.5076C38.4629 80.1426 37.9112 80.7975 37.3831 81.4711C37.1155 81.8232 36.8538 82.1733 36.5981 82.6161C36.5337 82.7423 36.4712 82.8429 36.4068 83.0086C36.3761 83.0815 36.3444 83.1555 36.3147 83.2798L36.276 83.4474C36.2633 83.5389 36.2586 83.6313 36.2621 83.7236C36.2691 83.8251 36.2611 83.8952 36.3305 84.0835C36.3771 84.2275 36.5158 84.4376 36.5614 84.476C36.6368 84.549 36.717 84.619 36.8003 84.6871C36.9638 84.834 37.1422 84.9287 37.3325 84.9918C38.0956 85.2561 38.6784 85.1151 39.1621 85.0115C39.6358 84.8833 40.0748 84.7285 40.4723 84.5648C41.2741 84.2433 42.0332 83.8892 42.6735 83.7236C42.8212 83.693 42.9569 83.6713 43.0293 83.6742C43.0818 83.6673 43.0471 83.69 43.065 83.6742C43.1051 83.6827 43.1434 83.6984 43.1779 83.7206C43.3474 83.8103 43.5387 83.9997 43.6913 84.2462C43.843 84.4829 43.9411 84.7531 44.0134 85.0865L44.0392 85.2117L44.0501 85.2887L44.0699 85.5628C44.0997 85.7916 44.0709 86.0766 44.3137 86.5727L44.3246 86.5954C44.4255 86.7992 44.5991 86.9581 44.8116 87.0412C45.0241 87.1242 45.2601 87.1252 45.4733 87.0441C45.951 86.8626 46.2563 86.7029 46.5764 86.5382C46.8985 86.3695 47.2156 86.193 47.5249 86.0066C48.1383 85.6375 48.7349 85.2413 49.3128 84.8192C50.4615 83.9859 51.5289 83.0845 52.5794 82.2048L58.631 77.2689C60.2594 77.4366 61.8907 77.4149 63.5042 77.2206C65.2485 77.0076 67.0404 76.5983 68.6925 75.7886C70.3437 75.0036 71.8541 73.759 72.8967 72.2275C73.9572 70.7038 74.5856 68.9987 75.087 67.3537C75.5866 65.6939 75.98 64.0983 76.5301 62.549C77.0736 60.9908 77.7073 59.4653 78.428 57.9799C79.1327 56.473 79.8869 55.1417 81.0603 54.2817C82.2001 53.3882 83.6273 53.1545 85.2645 53.1703H85.2962C85.5591 53.1697 85.811 53.0653 85.9965 52.88C86.182 52.6947 86.2859 52.4436 86.2854 52.1821C86.2848 51.9205 86.1799 51.6699 85.9937 51.4853C85.8074 51.3007 85.5551 51.1973 85.2923 51.1979ZM38.2344 83.7689C38.2285 83.7827 38.2304 83.7788 38.2344 83.7689V83.7689ZM55.6369 32.4483C55.9422 33.3044 56.3753 34.115 56.8837 34.8547C57.3961 35.5982 58.0582 36.2166 58.739 36.7629C58.1751 36.0884 57.6726 35.3823 57.3357 34.5943C56.9927 33.8152 56.7142 33.0184 56.5715 32.187C56.4364 31.4314 56.3671 30.6655 56.3644 29.898C56.7152 30.2402 57.072 30.5647 57.4447 30.8537C57.9828 31.2758 58.5349 31.6643 59.1028 32.0203C59.6756 32.3803 60.2346 32.7077 60.861 33.0282C61.0607 33.13 61.2893 33.1612 61.5092 33.1165C61.7291 33.0718 61.9272 32.954 62.0708 32.7823C62.2144 32.6107 62.295 32.3956 62.2994 32.1723C62.3038 31.949 62.2317 31.7309 62.0949 31.5539L62.0622 31.5115C61.4764 30.7541 60.9145 29.9681 60.5289 29.0756C60.1179 28.1895 59.8097 27.2598 59.6102 26.3043C59.4722 25.6311 59.3766 24.95 59.3238 24.2649C59.6181 24.6032 59.9115 24.9414 60.2276 25.2471C60.6627 25.6663 61.0889 26.0489 61.5854 26.4414C61.7461 26.5685 61.9425 26.6425 62.1474 26.6533C62.3523 26.664 62.5555 26.6108 62.7286 26.5012C62.9017 26.3915 63.0362 26.2309 63.1132 26.0417C63.1902 25.8524 63.206 25.644 63.1583 25.4454L63.1434 25.3852C62.9908 24.7531 62.8174 24.1239 62.6786 23.4897C62.5924 22.8497 62.4368 22.2136 62.4031 21.5716C62.2673 20.2876 62.3198 19.0026 62.4774 17.7392C62.6826 16.4838 63.0324 15.256 63.5627 14.11C63.6003 14.0282 63.6469 13.9473 63.6866 13.8655C63.7985 15.8211 64.299 17.7422 65.0394 19.4957C65.6419 20.9387 66.3806 22.3216 67.2456 23.6258C68.1187 24.9217 69.0781 26.0894 69.9195 27.2738C70.7627 28.4135 71.4444 29.6632 71.9453 30.9878C72.204 31.6485 72.3586 32.3438 72.5776 33.0243C72.7966 33.7057 73.0177 34.3961 73.1792 35.1051C73.8621 37.9385 74.1069 40.9267 74.1346 43.9326C74.7402 40.9878 75.0573 37.9395 74.8076 34.8517C74.7528 34.0744 74.6549 33.3007 74.5142 32.5341C74.3655 31.7629 74.0712 31.0282 73.7996 30.2886C73.2386 28.8079 72.4778 27.4102 71.538 26.1337C70.642 24.8753 69.6945 23.7205 68.8937 22.5282C68.1011 21.3321 67.4238 20.0641 66.8709 18.7412C65.7668 16.1179 65.2921 13.2501 65.9205 10.5597L65.9324 10.5085C65.9789 10.3037 65.9575 10.0894 65.8714 9.89775C65.7853 9.70608 65.6391 9.54733 65.4548 9.44527C65.2704 9.3432 65.0577 9.30333 64.8487 9.33161C64.6396 9.35989 64.4454 9.45481 64.2951 9.60215C63.1315 10.7412 62.3971 11.9434 61.7619 13.2816C61.1474 14.6071 60.746 16.0173 60.5151 17.4473C60.3317 18.8813 60.2782 20.33 60.4269 21.754C60.4447 22.0647 60.4913 22.3704 60.5398 22.6751C60.2224 22.2975 59.9485 21.8857 59.7232 21.4473C59.516 21.0391 59.4001 20.6288 59.4259 20.3418L59.4278 20.3181C59.4515 20.0627 59.374 19.8081 59.2119 19.6086C59.0498 19.409 58.8159 19.2803 58.5599 19.2497C58.3039 19.2192 58.046 19.2892 57.8411 19.4449C57.6361 19.6005 57.5003 19.8296 57.4625 20.0834C57.4576 20.117 57.4576 20.1465 57.4526 20.1791H57.4496V20.2018C57.1379 22.37 57.2117 24.5758 57.6677 26.7185C57.8272 27.5105 58.0681 28.2905 58.3664 29.0519C58.0116 28.757 57.6746 28.4513 57.405 28.117C57.0651 27.686 56.7351 27.2797 56.5676 26.897L56.4754 26.686C56.3944 26.4997 56.252 26.3464 56.0718 26.2514C55.8915 26.1563 55.6841 26.1252 55.4837 26.163C55.2833 26.2009 55.1018 26.3056 54.9692 26.4598C54.8365 26.614 54.7606 26.8086 54.7539 27.0114C54.7172 28.0075 54.8014 28.8862 54.9422 29.8024C55.0958 30.7067 55.3247 31.5943 55.6369 32.4483Z" fill="white"/>
<path d="M14.1703 100.894C14.1275 100.891 14.1045 100.901 14.1045 100.921C14.0123 101.36 13.8377 101.697 13.5875 101.94C13.3339 102.179 13.0178 102.3 12.6358 102.3H11.8652C11.6446 102.3 11.4767 102.28 11.368 102.241C11.2626 102.202 11.1869 102.133 11.1408 102.041C11.098 101.946 11.0782 101.809 11.0782 101.622V99.1577H12.2999C12.6753 99.1577 12.9453 99.2265 13.11 99.3674C13.2779 99.505 13.3603 99.7344 13.3603 100.049C13.3603 100.065 13.38 100.072 13.4261 100.072C13.4689 100.072 13.4887 100.065 13.4887 100.049L13.4788 99.5116C13.4722 99.4035 13.4689 99.2462 13.4689 99.0365L13.4788 98.1452C13.4788 98.1288 13.4558 98.1223 13.4129 98.1223C13.3701 98.1223 13.3504 98.1288 13.3504 98.1452C13.3504 98.4172 13.2681 98.6138 13.1067 98.735C12.942 98.8595 12.6819 98.9185 12.3197 98.9185H11.0782V96.7231C11.0782 96.4577 11.1309 96.2775 11.2396 96.1857C11.3482 96.0907 11.5722 96.0448 11.9113 96.0448H12.5041C12.8663 96.0448 13.1561 96.1497 13.38 96.3561C13.6039 96.5658 13.739 96.864 13.7818 97.2506C13.7818 97.2736 13.8015 97.2834 13.841 97.2834C13.8805 97.2834 13.9003 97.2736 13.9003 97.2506L13.8773 95.9072C13.8773 95.8416 13.8476 95.8089 13.7818 95.8089H9.3889C9.37573 95.8089 9.36914 95.8318 9.36914 95.8744C9.36914 95.917 9.37573 95.9367 9.3889 95.9367C9.65564 95.9367 9.84992 95.9563 9.97506 95.9957C10.0969 96.035 10.1792 96.1071 10.222 96.2054C10.2648 96.3069 10.2879 96.4642 10.2879 96.6805V101.664C10.2879 101.881 10.2648 102.038 10.222 102.143C10.1792 102.248 10.0969 102.316 9.97506 102.353C9.84992 102.389 9.65564 102.408 9.3889 102.408C9.37573 102.408 9.36914 102.428 9.36914 102.47C9.36914 102.513 9.37573 102.536 9.3889 102.536H13.9662C14.0287 102.536 14.0748 102.523 14.1012 102.5C14.1242 102.474 14.1374 102.431 14.1374 102.375C14.1374 101.881 14.1703 101.399 14.2362 100.934C14.2362 100.911 14.2131 100.898 14.1703 100.894ZM22.4028 102.47C22.4028 102.428 22.3897 102.408 22.36 102.408C22.1361 102.408 21.9385 102.313 21.764 102.126C21.5928 101.94 21.382 101.586 21.1383 101.061L18.5632 95.7237C18.5566 95.7007 18.5303 95.6909 18.4875 95.6909C18.4446 95.6909 18.415 95.7007 18.4018 95.7237L16.1165 101.039C15.9584 101.412 15.8135 101.697 15.6851 101.891C15.5567 102.084 15.4217 102.218 15.2801 102.294C15.1385 102.369 14.9672 102.408 14.7664 102.408C14.7301 102.408 14.7104 102.428 14.7104 102.47C14.7104 102.513 14.7301 102.536 14.7664 102.536C14.9178 102.536 15.1023 102.529 15.3163 102.513C15.5764 102.5 15.7971 102.493 15.9782 102.493C16.1791 102.493 16.4162 102.5 16.6928 102.513C16.9365 102.529 17.1242 102.536 17.2526 102.536C17.2888 102.536 17.3086 102.513 17.3086 102.47C17.3086 102.428 17.2888 102.408 17.2526 102.408C16.5545 102.408 16.2054 102.182 16.2054 101.73C16.2054 101.55 16.2515 101.353 16.3437 101.137L18.2043 96.8312L20.4995 101.599C20.5983 101.815 20.651 101.976 20.651 102.084C20.651 102.205 20.595 102.29 20.483 102.336C20.3711 102.382 20.1866 102.408 19.9265 102.408C19.8969 102.408 19.8837 102.428 19.8837 102.47C19.8837 102.513 19.8969 102.536 19.9265 102.536C20.0549 102.536 20.236 102.529 20.4665 102.513C20.7102 102.5 20.9177 102.493 21.0823 102.493C21.2206 102.493 21.4314 102.5 21.7212 102.513C22.011 102.529 22.2217 102.536 22.36 102.536C22.3897 102.536 22.4028 102.513 22.4028 102.47ZM27.6288 100.894C27.5827 100.891 27.563 100.901 27.563 100.921C27.4675 101.36 27.2962 101.697 27.0427 101.94C26.7924 102.179 26.473 102.3 26.091 102.3H25.3237C25.0998 102.3 24.9351 102.28 24.8265 102.241C24.7178 102.202 24.6421 102.133 24.5993 102.041C24.5565 101.946 24.5334 101.809 24.5334 101.622V99.1577H25.7551C26.1305 99.1577 26.4005 99.2265 26.5685 99.3674C26.7331 99.505 26.8154 99.7344 26.8154 100.049C26.8154 100.065 26.8385 100.072 26.8813 100.072C26.9241 100.072 26.9472 100.065 26.9472 100.049L26.934 99.5116C26.9274 99.4035 26.9241 99.2462 26.9241 99.0365L26.934 98.1452C26.934 98.1288 26.9142 98.1223 26.8714 98.1223C26.8253 98.1223 26.8056 98.1288 26.8056 98.1452C26.8056 98.4172 26.7232 98.6138 26.5619 98.735C26.4005 98.8595 26.1371 98.9185 25.7782 98.9185H24.5334V96.7231C24.5334 96.4577 24.5894 96.2775 24.6948 96.1857C24.8034 96.0907 25.0273 96.0448 25.3665 96.0448H25.9626C26.3215 96.0448 26.6146 96.1497 26.8385 96.3561C27.0624 96.5658 27.1941 96.864 27.237 97.2506C27.237 97.2736 27.2567 97.2834 27.2962 97.2834C27.3357 97.2834 27.3555 97.2736 27.3555 97.2506L27.3357 95.9072C27.3357 95.8416 27.3028 95.8089 27.237 95.8089H22.8474C22.8309 95.8089 22.8243 95.8318 22.8243 95.8744C22.8243 95.917 22.8309 95.9367 22.8474 95.9367C23.1141 95.9367 23.3084 95.9563 23.4302 95.9957C23.5521 96.035 23.6344 96.1071 23.6805 96.2054C23.7233 96.3069 23.7431 96.4642 23.7431 96.6805V101.664C23.7431 101.881 23.7233 102.038 23.6805 102.143C23.6344 102.248 23.5521 102.316 23.4302 102.353C23.3084 102.389 23.1141 102.408 22.8474 102.408C22.8309 102.408 22.8243 102.428 22.8243 102.47C22.8243 102.513 22.8309 102.536 22.8474 102.536H27.4214C27.4872 102.536 27.5333 102.523 27.5564 102.5C27.5827 102.474 27.5959 102.431 27.5959 102.375C27.5959 101.881 27.6288 101.399 27.6914 100.934C27.6914 100.911 27.6716 100.898 27.6288 100.894ZM36.0852 102.47C36.0852 102.428 36.0754 102.408 36.0523 102.408C35.779 102.408 35.5814 102.389 35.453 102.353C35.3279 102.316 35.2422 102.248 35.1928 102.143C35.1467 102.038 35.1237 101.881 35.1237 101.664V96.6805C35.1237 96.4642 35.1467 96.3069 35.1928 96.2054C35.2422 96.1071 35.3279 96.035 35.453 95.9957C35.5814 95.9563 35.779 95.9367 36.0523 95.9367C36.0754 95.9367 36.0852 95.917 36.0852 95.8744C36.0852 95.8318 36.0754 95.8089 36.0523 95.8089L35.5123 95.8187C35.1961 95.8351 34.9393 95.8416 34.745 95.8416C34.5079 95.8416 34.228 95.8351 33.9119 95.8187L33.4047 95.8089C33.3817 95.8089 33.3718 95.8318 33.3718 95.8744C33.3718 95.917 33.3817 95.9367 33.4047 95.9367C33.6781 95.9367 33.8789 95.9596 34.0107 96.0022C34.1391 96.0448 34.228 96.1202 34.2741 96.2217C34.3202 96.3266 34.3432 96.4872 34.3432 96.7034V98.9185H30.3093V96.7034C30.3093 96.4872 30.3324 96.3266 30.3818 96.2217C30.4279 96.1202 30.5168 96.0448 30.6452 96.0022C30.7736 95.9596 30.9778 95.9367 31.2511 95.9367C31.2643 95.9367 31.2742 95.917 31.2742 95.8744C31.2742 95.8318 31.2643 95.8089 31.2511 95.8089L30.7209 95.8187C30.3884 95.8351 30.115 95.8416 29.8977 95.8416C29.7034 95.8416 29.4564 95.8351 29.1535 95.8187L28.6003 95.8089C28.5871 95.8089 28.5805 95.8318 28.5805 95.8744C28.5805 95.917 28.5871 95.9367 28.6003 95.9367C28.867 95.9367 29.0646 95.9563 29.1897 95.9957C29.3181 96.035 29.4037 96.1071 29.4498 96.2054C29.4959 96.3069 29.519 96.4642 29.519 96.6805V101.664C29.519 101.881 29.4959 102.038 29.4498 102.143C29.4037 102.248 29.3181 102.316 29.1897 102.353C29.0646 102.389 28.8637 102.408 28.5904 102.408C28.5772 102.408 28.5673 102.428 28.5673 102.47C28.5673 102.513 28.5772 102.536 28.5904 102.536C28.8275 102.536 29.0119 102.533 29.1403 102.526L29.8977 102.513L30.7111 102.526C30.8395 102.533 31.0206 102.536 31.2511 102.536C31.2643 102.536 31.2742 102.513 31.2742 102.47C31.2742 102.428 31.2643 102.408 31.2511 102.408C30.9712 102.408 30.767 102.389 30.6386 102.353C30.5135 102.316 30.4279 102.248 30.3818 102.143C30.3324 102.038 30.3093 101.881 30.3093 101.664V99.1577H34.3432V101.664C34.3432 101.881 34.3202 102.038 34.2741 102.143C34.228 102.248 34.1424 102.316 34.0139 102.353C33.8888 102.389 33.6846 102.408 33.4047 102.408C33.3817 102.408 33.3718 102.428 33.3718 102.47C33.3718 102.513 33.3817 102.536 33.4047 102.536C33.6188 102.536 33.79 102.533 33.9119 102.526L34.745 102.513L35.5123 102.526C35.644 102.533 35.8218 102.536 36.0523 102.536C36.0754 102.536 36.0852 102.513 36.0852 102.47ZM44.0806 102.47C44.0806 102.428 44.0642 102.408 44.0378 102.408C43.8139 102.408 43.6163 102.313 43.4418 102.126C43.2706 101.94 43.0598 101.586 42.8161 101.061L40.241 95.7237C40.2344 95.7007 40.2081 95.6909 40.1653 95.6909C40.1225 95.6909 40.0928 95.7007 40.0764 95.7237L37.7943 101.039C37.6362 101.412 37.4914 101.697 37.3629 101.891C37.2345 102.084 37.0962 102.218 36.9579 102.294C36.8163 102.369 36.6451 102.408 36.4442 102.408C36.408 102.408 36.3882 102.428 36.3882 102.47C36.3882 102.513 36.408 102.536 36.4442 102.536C36.5957 102.536 36.7801 102.529 36.9941 102.513C37.2543 102.5 37.4749 102.493 37.656 102.493C37.8569 102.493 38.094 102.5 38.3673 102.513C38.6143 102.529 38.802 102.536 38.9304 102.536C38.9666 102.536 38.9864 102.513 38.9864 102.47C38.9864 102.428 38.9666 102.408 38.9304 102.408C38.2323 102.408 37.8832 102.182 37.8832 101.73C37.8832 101.55 37.9293 101.353 38.0215 101.137L38.6604 99.6623H41.2454L42.1773 101.599C42.2761 101.815 42.3288 101.976 42.3288 102.084C42.3288 102.205 42.2728 102.29 42.1608 102.336C42.0489 102.382 41.8612 102.408 41.6043 102.408C41.5747 102.408 41.5582 102.428 41.5582 102.47C41.5582 102.513 41.5747 102.536 41.6043 102.536C41.7327 102.536 41.9138 102.529 42.1444 102.513C42.388 102.5 42.5955 102.493 42.7602 102.493C42.8985 102.493 43.1092 102.5 43.399 102.513C43.6888 102.529 43.8995 102.536 44.0378 102.536C44.0642 102.536 44.0806 102.513 44.0806 102.47ZM38.7592 99.4362L39.8821 96.8312L41.1367 99.4362H38.7592ZM49.165 102.546C49.4449 102.569 49.6952 102.579 49.9092 102.579C50.5744 102.579 51.1836 102.434 51.7435 102.143C52.3033 101.851 52.7478 101.438 53.0738 100.904C53.4031 100.37 53.5678 99.7541 53.5678 99.0594C53.5678 98.4434 53.4097 97.8863 53.0903 97.3915C52.7742 96.8968 52.3263 96.5035 51.75 96.2185C51.1738 95.9301 50.5086 95.7859 49.7578 95.7859C49.6425 95.7859 49.412 95.7958 49.0662 95.8089C48.7995 95.8318 48.5295 95.8416 48.2562 95.8416C48.075 95.8416 47.8281 95.8351 47.5087 95.8187L46.9686 95.8089C46.9554 95.8089 46.9455 95.8318 46.9455 95.8744C46.9455 95.917 46.9554 95.9367 46.9686 95.9367C47.2353 95.9367 47.4296 95.9563 47.5515 95.9957C47.6766 96.035 47.7589 96.1071 47.8017 96.2054C47.8445 96.3069 47.8676 96.4642 47.8676 96.6805V101.664C47.8676 101.881 47.8412 102.038 47.7951 102.143C47.749 102.248 47.6634 102.316 47.5416 102.353C47.4197 102.389 47.2255 102.408 46.9587 102.408C46.9423 102.408 46.9357 102.428 46.9357 102.47C46.9357 102.513 46.9423 102.536 46.9587 102.536C47.1892 102.536 47.3736 102.533 47.5087 102.526L48.2562 102.513C48.4439 102.513 48.6151 102.52 48.7699 102.526C48.9246 102.533 49.0564 102.539 49.165 102.546ZM51.2791 102.048C50.851 102.287 50.3571 102.408 49.8039 102.408C49.3494 102.408 49.0432 102.343 48.8884 102.212C48.7337 102.084 48.6546 101.861 48.6546 101.546V96.7034C48.6546 96.4872 48.6941 96.3266 48.7765 96.2217C48.8555 96.1202 48.9773 96.0481 49.142 96.012C49.3099 95.976 49.547 95.9596 49.8566 95.9596C50.4131 95.9596 50.9004 96.1071 51.3219 96.402C51.7435 96.6936 52.0695 97.0934 52.3 97.6013C52.5305 98.1059 52.649 98.6727 52.649 99.2953C52.649 99.9507 52.5272 100.511 52.2835 100.98C52.0431 101.451 51.7072 101.805 51.2791 102.048ZM61.6027 102.47C61.6027 102.428 61.5895 102.408 61.5599 102.408C61.336 102.408 61.1384 102.313 60.9671 102.126C60.7926 101.94 60.5851 101.586 60.3382 101.061L57.7631 95.7237C57.7565 95.7007 57.7301 95.6909 57.6873 95.6909C57.6445 95.6909 57.6149 95.7007 57.6017 95.7237L55.3196 101.039C55.1616 101.412 55.0167 101.697 54.885 101.891C54.7565 102.084 54.6215 102.218 54.4799 102.294C54.3416 102.369 54.1704 102.408 53.9662 102.408C53.93 102.408 53.9135 102.428 53.9135 102.47C53.9135 102.513 53.93 102.536 53.9662 102.536C54.1177 102.536 54.3021 102.529 54.5194 102.513C54.7796 102.5 54.9969 102.493 55.178 102.493C55.3789 102.493 55.6193 102.5 55.8926 102.513C56.1363 102.529 56.324 102.536 56.4557 102.536C56.492 102.536 56.5084 102.513 56.5084 102.47C56.5084 102.428 56.492 102.408 56.4557 102.408C55.7543 102.408 55.4053 102.182 55.4053 101.73C55.4053 101.55 55.4514 101.353 55.5469 101.137L56.1857 99.6623H58.7707L59.6993 101.599C59.8014 101.815 59.8508 101.976 59.8508 102.084C59.8508 102.205 59.7948 102.29 59.6829 102.336C59.5709 102.382 59.3865 102.408 59.1264 102.408C59.0967 102.408 59.0835 102.428 59.0835 102.47C59.0835 102.513 59.0967 102.536 59.1264 102.536C59.2581 102.536 59.4359 102.529 59.6664 102.513C59.9134 102.5 60.1175 102.493 60.2855 102.493C60.4205 102.493 60.6345 102.5 60.921 102.513C61.2108 102.529 61.4249 102.536 61.5599 102.536C61.5895 102.536 61.6027 102.513 61.6027 102.47ZM56.2812 99.4362L57.4074 96.8312L58.662 99.4362H56.2812ZM69.4466 102.47C69.4466 102.428 69.4367 102.408 69.4137 102.408C69.1404 102.408 68.9395 102.389 68.8144 102.353C68.6859 102.316 68.6003 102.248 68.5542 102.143C68.5081 102.038 68.4851 101.881 68.4851 101.664V96.6805C68.4851 96.4642 68.5081 96.3069 68.5542 96.2054C68.6003 96.1071 68.6859 96.035 68.8144 95.9957C68.9395 95.9563 69.1404 95.9367 69.4137 95.9367C69.4367 95.9367 69.4466 95.917 69.4466 95.8744C69.4466 95.8318 69.4367 95.8089 69.4137 95.8089L68.8736 95.8187C68.5542 95.8351 68.3006 95.8416 68.1064 95.8416C67.866 95.8416 67.5894 95.8351 67.2732 95.8187L66.7628 95.8089C66.7431 95.8089 66.7299 95.8318 66.7299 95.8744C66.7299 95.917 66.7431 95.9367 66.7628 95.9367C67.0361 95.9367 67.2403 95.9596 67.3687 96.0022C67.5004 96.0448 67.5861 96.1202 67.6355 96.2217C67.6816 96.3266 67.7046 96.4872 67.7046 96.7034V98.9185H63.6707V96.7034C63.6707 96.4872 63.6937 96.3266 63.7398 96.2217C63.7859 96.1202 63.8749 96.0448 64.0066 96.0022C64.135 95.9596 64.3359 95.9367 64.6125 95.9367C64.6257 95.9367 64.6322 95.917 64.6322 95.8744C64.6322 95.8318 64.6257 95.8089 64.6125 95.8089L64.0823 95.8187C63.7497 95.8351 63.4764 95.8416 63.2591 95.8416C63.0648 95.8416 62.8145 95.8351 62.5116 95.8187L61.9616 95.8089C61.9452 95.8089 61.9386 95.8318 61.9386 95.8744C61.9386 95.917 61.9452 95.9367 61.9616 95.9367C62.2284 95.9367 62.4226 95.9563 62.5511 95.9957C62.6762 96.035 62.7618 96.1071 62.8112 96.2054C62.8573 96.3069 62.8804 96.4642 62.8804 96.6805V101.664C62.8804 101.881 62.8573 102.038 62.8112 102.143C62.7618 102.248 62.6762 102.316 62.5511 102.353C62.4226 102.389 62.2251 102.408 61.9517 102.408C61.9353 102.408 61.9287 102.428 61.9287 102.47C61.9287 102.513 61.9353 102.536 61.9517 102.536C62.1888 102.536 62.3732 102.533 62.5017 102.526L63.2591 102.513L64.0691 102.526C64.2009 102.533 64.382 102.536 64.6125 102.536C64.6257 102.536 64.6322 102.513 64.6322 102.47C64.6322 102.428 64.6257 102.408 64.6125 102.408C64.3293 102.408 64.1251 102.389 64 102.353C63.8749 102.316 63.7859 102.248 63.7398 102.143C63.6937 102.038 63.6707 101.881 63.6707 101.664V99.1577H67.7046V101.664C67.7046 101.881 67.6816 102.038 67.6355 102.143C67.5861 102.248 67.5005 102.316 67.3753 102.353C67.2502 102.389 67.046 102.408 66.7628 102.408C66.7431 102.408 66.7299 102.428 66.7299 102.47C66.7299 102.513 66.7431 102.536 66.7628 102.536C66.9802 102.536 67.1481 102.533 67.2732 102.526L68.1064 102.513L68.8736 102.526C69.0021 102.533 69.1832 102.536 69.4137 102.536C69.4367 102.536 69.4466 102.513 69.4466 102.47ZM77.7548 102.47C77.7548 102.428 77.7417 102.408 77.7219 102.408C77.4552 102.408 77.2576 102.389 77.1259 102.353C76.9975 102.316 76.9085 102.248 76.8624 102.143C76.813 102.038 76.79 101.881 76.79 101.664V95.7859C76.79 95.7663 76.7735 95.7466 76.7439 95.7335C76.711 95.7204 76.6714 95.7106 76.6286 95.7106C76.5628 95.7106 76.52 95.727 76.5002 95.7565L71.89 101.599V96.6805C71.89 96.4642 71.9131 96.3069 71.9625 96.2054C72.0086 96.1071 72.0942 96.035 72.2226 95.9957C72.3477 95.9563 72.5519 95.9367 72.8318 95.9367C72.8549 95.9367 72.8647 95.917 72.8647 95.8744C72.8647 95.8318 72.8549 95.8089 72.8318 95.8089L72.3247 95.8187C72.0053 95.8351 71.7287 95.8416 71.4916 95.8416C71.3104 95.8416 71.0602 95.8351 70.7441 95.8187L70.181 95.8089C70.1612 95.8089 70.148 95.8318 70.148 95.8744C70.148 95.917 70.1612 95.9367 70.181 95.9367C70.4477 95.9367 70.6453 95.9563 70.7704 95.9957C70.8988 96.035 70.9844 96.1071 71.0305 96.2054C71.0766 96.3069 71.103 96.4642 71.103 96.6805V102.602C71.103 102.621 71.1195 102.641 71.1557 102.654C71.1919 102.67 71.2314 102.677 71.2742 102.677C71.3467 102.677 71.3928 102.664 71.4158 102.644L76.003 96.8083V101.664C76.003 101.887 75.9799 102.048 75.9371 102.149C75.8943 102.248 75.8087 102.316 75.6835 102.353C75.5551 102.389 75.351 102.408 75.0711 102.408C75.048 102.408 75.0381 102.428 75.0381 102.47C75.0381 102.513 75.048 102.536 75.0711 102.536C75.2884 102.536 75.4596 102.533 75.5913 102.526L76.4014 102.513L77.1819 102.526C77.3103 102.533 77.4914 102.536 77.7219 102.536C77.7417 102.536 77.7548 102.513 77.7548 102.47ZM85.747 102.47C85.747 102.428 85.7338 102.408 85.7041 102.408C85.4802 102.408 85.2826 102.313 85.1081 102.126C84.9369 101.94 84.7261 101.586 84.4824 101.061L81.9073 95.7237C81.9007 95.7007 81.8744 95.6909 81.8316 95.6909C81.7888 95.6909 81.7591 95.7007 81.746 95.7237L79.4639 101.039C79.3059 101.412 79.161 101.697 79.0292 101.891C78.9008 102.084 78.7658 102.218 78.6242 102.294C78.4826 102.369 78.3114 102.408 78.1105 102.408C78.0743 102.408 78.0578 102.428 78.0578 102.47C78.0578 102.513 78.0743 102.536 78.1105 102.536C78.262 102.536 78.4464 102.529 78.6637 102.513C78.9206 102.5 79.1412 102.493 79.3223 102.493C79.5232 102.493 79.7636 102.5 80.0369 102.513C80.2806 102.529 80.4683 102.536 80.6 102.536C80.6362 102.536 80.6527 102.513 80.6527 102.47C80.6527 102.428 80.6362 102.408 80.6 102.408C79.8986 102.408 79.5495 102.182 79.5495 101.73C79.5495 101.55 79.5956 101.353 79.6911 101.137L81.5517 96.8312L83.8436 101.599C83.9457 101.815 83.9951 101.976 83.9951 102.084C83.9951 102.205 83.9391 102.29 83.8271 102.336C83.7152 102.382 83.5308 102.408 83.2706 102.408C83.241 102.408 83.2278 102.428 83.2278 102.47C83.2278 102.513 83.241 102.536 83.2706 102.536C83.399 102.536 83.5802 102.529 83.8107 102.513C84.0576 102.5 84.2618 102.493 84.4265 102.493C84.5648 102.493 84.7788 102.5 85.0653 102.513C85.3551 102.529 85.5658 102.536 85.7041 102.536C85.7338 102.536 85.747 102.513 85.747 102.47ZM87.7656 102.199C88.2891 102.51 88.8852 102.664 89.557 102.664C90.232 102.664 90.861 102.507 91.4438 102.192C92.0234 101.877 92.4877 101.445 92.8335 100.901C93.1793 100.354 93.3538 99.7541 93.3538 99.102C93.3538 98.5155 93.2122 97.9584 92.9356 97.4341C92.659 96.9099 92.2605 96.4872 91.7402 96.1693C91.2199 95.8515 90.6206 95.6909 89.9324 95.6909C89.3199 95.6909 88.7205 95.822 88.1344 96.0874C87.5449 96.3528 87.0642 96.7493 86.6888 97.2769C86.3133 97.8044 86.1256 98.4401 86.1256 99.1774C86.1256 99.8098 86.2673 100.393 86.5537 100.927C86.8369 101.461 87.242 101.884 87.7656 102.199ZM91.2166 102.074C90.8379 102.31 90.4098 102.428 89.9324 102.428C89.3725 102.428 88.8687 102.267 88.4307 101.949C87.9895 101.632 87.647 101.193 87.4033 100.642C87.1564 100.088 87.0345 99.4755 87.0345 98.8005C87.0345 97.9125 87.2519 97.2146 87.6832 96.7067C88.1179 96.2021 88.7172 95.9498 89.4911 95.9498C90.0805 95.9498 90.6008 96.0972 91.0487 96.3889C91.4965 96.6838 91.839 97.0934 92.0827 97.6176C92.3231 98.1419 92.4449 98.735 92.4449 99.4035C92.4449 100.036 92.3329 100.58 92.1123 101.035C91.895 101.491 91.5953 101.835 91.2166 102.074ZM98.9189 99.3215C98.5666 98.9906 98.1056 98.7973 97.526 98.7481C97.9245 98.5974 98.234 98.3877 98.4579 98.119C98.6819 97.847 98.7938 97.5423 98.7938 97.1982C98.7938 96.7657 98.6391 96.4216 98.3295 96.1628C98.0167 95.9072 97.5524 95.7761 96.9333 95.7761C96.7291 95.7761 96.5183 95.7859 96.2944 95.8089C96.2154 95.8154 96.1199 95.822 96.0079 95.8318C95.896 95.8384 95.7741 95.8416 95.6457 95.8416C95.4514 95.8416 95.2012 95.8351 94.8982 95.8187L94.368 95.8089C94.3483 95.8089 94.3351 95.8318 94.3351 95.8744C94.3351 95.917 94.3483 95.9367 94.368 95.9367C94.6282 95.9367 94.8192 95.9563 94.941 95.9957C95.0661 96.035 95.1485 96.1071 95.1913 96.2054C95.2341 96.3069 95.2571 96.4642 95.2571 96.6805V101.664C95.2571 101.881 95.2341 102.038 95.1847 102.136C95.1386 102.238 95.053 102.307 94.9245 102.349C94.7994 102.389 94.6084 102.408 94.3483 102.408C94.3318 102.408 94.3252 102.428 94.3252 102.47C94.3252 102.513 94.3318 102.536 94.3483 102.536C94.5788 102.536 94.7632 102.533 94.8982 102.526L95.6457 102.513C95.8169 102.513 95.975 102.52 96.11 102.526C96.2483 102.533 96.3669 102.539 96.469 102.546C96.7423 102.569 96.9925 102.579 97.2263 102.579C97.6446 102.579 98.02 102.49 98.3559 102.316C98.6917 102.14 98.9552 101.897 99.1495 101.589C99.3438 101.281 99.4425 100.937 99.4425 100.557C99.4425 100.069 99.268 99.6558 98.9189 99.3215ZM96.3109 95.9957C96.3998 95.9662 96.5348 95.9498 96.7159 95.9498C97.1572 95.9498 97.4799 96.0677 97.6907 96.3102C97.8981 96.5494 98.0035 96.8705 98.0035 97.2736C98.0035 97.7159 97.8817 98.0764 97.6413 98.3484C97.4009 98.6203 97.0288 98.7579 96.5315 98.7579L96.0442 98.7481V96.7034C96.0442 96.4806 96.0672 96.3135 96.11 96.2054C96.1528 96.1005 96.222 96.0284 96.3109 95.9957ZM98.2208 101.972C97.9673 102.241 97.582 102.375 97.0617 102.375C96.7818 102.375 96.5677 102.353 96.4229 102.303C96.2813 102.257 96.1825 102.185 96.1265 102.084C96.0738 101.982 96.0442 101.845 96.0442 101.664V99.0168C96.3636 98.9939 96.6237 98.9873 96.8246 98.9939C97.3811 99.0004 97.8158 99.1708 98.1286 99.505C98.4415 99.8393 98.5995 100.278 98.5995 100.826C98.5995 101.32 98.4711 101.7 98.2208 101.972ZM107.632 102.47C107.632 102.428 107.616 102.408 107.586 102.408C107.365 102.408 107.165 102.313 106.993 102.126C106.819 101.94 106.611 101.586 106.364 101.061L103.789 95.7237C103.783 95.7007 103.76 95.6909 103.714 95.6909C103.671 95.6909 103.644 95.7007 103.628 95.7237L101.346 101.039C101.188 101.412 101.043 101.697 100.915 101.891C100.783 102.084 100.648 102.218 100.506 102.294C100.368 102.369 100.197 102.408 99.9925 102.408C99.9562 102.408 99.9398 102.428 99.9398 102.47C99.9398 102.513 99.9562 102.536 99.9925 102.536C100.144 102.536 100.328 102.529 100.546 102.513C100.806 102.5 101.026 102.493 101.204 102.493C101.408 102.493 101.646 102.5 101.919 102.513C102.166 102.529 102.354 102.536 102.482 102.536C102.518 102.536 102.535 102.513 102.535 102.47C102.535 102.428 102.518 102.408 102.482 102.408C101.784 102.408 101.432 102.182 101.432 101.73C101.432 101.55 101.481 101.353 101.573 101.137L102.212 99.6623H104.797L105.726 101.599C105.828 101.815 105.877 101.976 105.877 102.084C105.877 102.205 105.821 102.29 105.712 102.336C105.6 102.382 105.413 102.408 105.153 102.408C105.126 102.408 105.11 102.428 105.11 102.47C105.11 102.513 105.126 102.536 105.153 102.536C105.284 102.536 105.462 102.529 105.696 102.513C105.94 102.5 106.144 102.493 106.312 102.493C106.447 102.493 106.661 102.5 106.951 102.513C107.237 102.529 107.451 102.536 107.586 102.536C107.616 102.536 107.632 102.513 107.632 102.47ZM102.307 99.4362L103.434 96.8312L104.688 99.4362H102.307Z" fill="white"/>
</svg>
