<svg width="90" height="60" viewBox="0 0 90 60" fill="none" xmlns="http://www.w3.org/2000/svg">
<rect width="90" height="60" fill="#216E8F"/>
<path d="M34.7062 25.9863C35.4498 26.6269 36.2518 27.1983 37.1018 27.693C37.3177 27.8223 37.5394 27.9428 37.7652 28.0562C37.6464 28.0572 37.5291 28.0536 37.4087 28.0582C37.0992 28.0776 36.7928 28.1037 36.4693 28.1532C36.3034 28.1808 36.1453 28.2032 35.936 28.2742C35.8673 28.3044 35.8275 28.3136 35.7381 28.3677C35.6911 28.3983 35.6451 28.4326 35.6033 28.4693C35.5235 28.5519 35.465 28.6523 35.4327 28.762C35.4017 28.8738 35.4209 29.0444 35.4772 29.1639C35.5092 29.2293 35.5041 29.2134 35.519 29.242L35.5816 29.3508C36.276 30.5147 37.4821 31.1965 38.6173 31.6326C39.4114 31.9369 40.2399 32.1451 41.0846 32.2526C40.8366 32.3512 40.5865 32.4457 40.3287 32.5187C40.1726 32.5632 40.015 32.6025 39.8559 32.6367L39.6166 32.6847C39.5226 32.7205 39.441 32.6781 39.2554 32.8481C39.2069 32.8941 39.1862 32.9937 39.211 33.0846C39.2322 33.1392 39.2622 33.1765 39.2911 33.2102C39.3381 33.2531 39.3867 33.2894 39.4275 33.3119C39.5133 33.3645 39.5939 33.3992 39.675 33.4355C39.8373 33.5044 39.9985 33.5601 40.1613 33.6127C40.819 33.8267 41.5027 33.8946 42.1734 33.9227L44.1829 33.9594C42.8601 33.7986 41.4841 33.796 40.2739 33.3047C40.1235 33.2458 39.9759 33.18 39.8316 33.1076C39.8161 33.0994 39.8037 33.0902 39.7882 33.082L39.9344 33.0631C40.7913 32.9389 41.6231 32.6821 42.3992 32.3022C42.4593 32.273 42.508 32.225 42.5378 32.1657C42.5676 32.1064 42.5768 32.0391 42.5639 31.9741C42.5511 31.9091 42.517 31.8501 42.4669 31.8062C42.4167 31.7623 42.3534 31.736 42.2865 31.7312L42.2633 31.7297C41.1193 31.6434 39.9928 31.3247 38.9619 30.8431C38.0577 30.4335 37.2749 29.8636 36.7214 29.1516C36.9622 29.1174 37.217 29.0939 37.4717 29.0781C38.0401 29.0572 38.6359 29.0863 39.2162 29.0873C39.799 29.0796 40.3866 29.1276 40.9746 29.1767L41.5564 29.2216C41.947 29.2665 42.3403 29.2967 42.733 29.312L42.7366 29.3125C42.7557 29.313 42.7748 29.3151 42.7934 29.3156C42.8611 29.3193 42.9288 29.3098 42.9927 29.2877C43.0566 29.2655 43.1155 29.2312 43.1659 29.1866C43.2164 29.1419 43.2575 29.0879 43.2869 29.0276C43.3162 28.9673 43.3333 28.9018 43.337 28.835C43.3408 28.7682 43.3312 28.7012 43.3088 28.6381C43.2864 28.5749 43.2516 28.5167 43.2065 28.4668C43.1613 28.4169 43.1067 28.3763 43.0457 28.3473C42.9846 28.3183 42.9184 28.3014 42.8508 28.2977L41.6313 28.2038C41.1213 28.1435 40.6155 28.0511 40.1225 27.8938C39.258 27.6272 38.408 27.283 37.6221 26.8116C36.8285 26.3491 36.0797 25.8154 35.3852 25.2171C35.2793 25.1257 35.1754 25.0292 35.071 24.9347C35.5048 25.0691 35.9457 25.1799 36.3918 25.2667C37.0118 25.3877 37.6402 25.4633 38.2711 25.4945C38.9082 25.5251 39.52 25.5225 40.1912 25.4454C40.3182 25.4308 40.4352 25.3701 40.5194 25.275C40.6036 25.1799 40.649 25.0573 40.6468 24.9309C40.6446 24.8046 40.5949 24.6836 40.5075 24.5914C40.4201 24.4992 40.3011 24.4425 40.1737 24.4322L40.1432 24.4296C39.3774 24.3678 38.6168 24.208 37.8892 23.9199C37.1611 23.6162 36.4691 23.2343 35.8255 22.7811C35.1837 22.3159 34.5809 21.8003 34.0231 21.2392C34.3058 21.3327 34.5889 21.4185 34.8731 21.4951C35.9473 21.7855 37.0368 22.0174 38.1367 22.1897C38.2612 22.2083 38.3883 22.1813 38.4941 22.1138C38.5999 22.0463 38.677 21.9429 38.7111 21.8231C38.7451 21.7033 38.7337 21.5754 38.6789 21.4633C38.6241 21.3512 38.5298 21.2628 38.4137 21.2147L38.3744 21.1989C37.991 21.0441 37.5926 20.9216 37.2211 20.7433C36.8548 20.5559 36.4739 20.392 36.1365 20.157C35.4286 19.7388 34.806 19.1959 34.2484 18.6014C33.6893 18.002 33.2173 17.3285 32.846 16.6005C32.7737 16.4621 32.707 16.318 32.6414 16.174C32.9685 16.4176 33.3028 16.6464 33.6433 16.8604C34.1032 17.148 34.576 17.4074 35.0545 17.6536C35.5366 17.8992 36.013 18.1275 36.5246 18.3415C36.6477 18.3925 36.786 18.3944 36.9106 18.3469C37.0351 18.2993 37.1362 18.206 37.1926 18.0864C37.2491 17.9669 37.2565 17.8303 37.2134 17.7055C37.1702 17.5806 37.0799 17.4771 36.9612 17.4166L36.954 17.413C36.2328 17.0497 35.635 16.4856 35.2343 15.7905C34.8173 15.0949 34.5791 14.2798 34.4458 13.4463C34.3177 12.6164 34.2939 11.761 34.3435 10.9061C34.7999 12.149 35.4323 13.3217 36.2218 14.3891C37.5296 16.1725 39.2699 17.7138 41.1947 18.7516C43.0988 19.819 45.021 20.7535 46.6239 22.1565C47.4264 22.8459 48.1627 23.6242 48.7177 24.5221C49.2855 25.4071 49.6302 26.4582 49.5377 27.5337C49.7263 26.4719 49.4721 25.3515 48.9641 24.3862C48.4629 23.4103 47.754 22.5538 46.9784 21.7821C45.4277 20.2148 43.491 19.0963 41.713 17.9252C40.8314 17.3226 39.9463 16.7557 39.1583 16.0816C38.3796 15.408 37.6732 14.6205 37.0578 13.789C35.8265 12.12 34.978 10.1742 34.7129 8.13906L34.7119 8.12834C34.6959 8.01007 34.6385 7.90111 34.5495 7.82046C34.4605 7.73982 34.3458 7.69261 34.2252 7.68707C34.1046 7.68154 33.9859 7.71803 33.8897 7.79019C33.7936 7.86234 33.7261 7.96557 33.6991 8.08186C33.4942 8.98414 33.3649 9.90159 33.3126 10.8249C33.2589 11.7436 33.2816 12.6747 33.4248 13.6026C33.555 14.4121 33.7849 15.2262 34.1761 15.9846C33.323 15.4534 32.4993 14.8416 31.9433 14.1123L31.9237 14.0863C31.8541 13.9954 31.7554 13.9305 31.6438 13.902C31.5322 13.8736 31.4141 13.8832 31.3087 13.9294C31.2033 13.9755 31.1167 14.0556 31.0631 14.1564C31.0095 14.2573 30.9919 14.3731 31.0132 14.4851C31.1946 15.4315 31.5093 16.2527 31.9263 17.0662C32.3396 17.8744 32.8639 18.6224 33.4842 19.2888C33.8428 19.6719 34.2298 20.0309 34.6416 20.3593C34.3076 20.2583 33.9776 20.145 33.6521 20.0197C33.1757 19.8333 32.7008 19.6014 32.3898 19.3261L32.3753 19.3128C32.2811 19.2293 32.1591 19.183 32.0325 19.1827C31.906 19.1825 31.7838 19.2282 31.6892 19.3113C31.5946 19.3944 31.5342 19.509 31.5196 19.6332C31.505 19.7574 31.5372 19.8826 31.61 19.9849C32.1216 20.7055 32.6719 21.3312 33.2739 21.9425C33.877 22.55 34.5294 23.1079 35.2245 23.6104C35.4947 23.8004 35.7764 23.9766 36.0631 24.1447C35.6715 24.0527 35.2829 23.948 34.9057 23.8127C34.3538 23.6309 33.8314 23.3801 33.3168 23.1181L33.2925 23.1054C33.1883 23.0527 33.0691 23.0367 32.9545 23.0601C32.84 23.0835 32.7369 23.1449 32.6624 23.234C32.5879 23.3232 32.5465 23.4348 32.5449 23.5505C32.5433 23.6661 32.5818 23.7788 32.6538 23.8699C33.2842 24.6656 33.9632 25.3402 34.7062 25.9863Z" fill="white"/>
<path d="M59.4685 26.5135H59.4545C59.2169 26.5124 58.7544 26.2785 58.4738 26.0196C58.4068 25.9613 58.3457 25.8966 58.2914 25.8266L58.1292 25.5482C57.9815 25.2934 57.7993 25.0597 57.5876 24.8537C57.1502 24.4348 56.5851 24.1704 55.9801 24.1014C55.3595 24.0564 54.8252 24.1892 54.3101 24.3889C53.2994 24.8154 52.515 25.5268 51.8624 26.2964C51.203 27.0655 50.6667 27.9184 50.2218 28.805C50.7814 27.9931 51.4308 27.2452 52.1579 26.5753C52.872 25.9149 53.6946 25.3623 54.5658 25.1013C54.7798 25.0419 54.9987 25.0019 55.22 24.9818C55.4365 24.9869 55.6613 24.9609 55.8396 25.0104C56.2178 25.0911 56.5599 25.3261 56.8482 25.6044C56.9929 25.7448 57.1246 25.9006 57.2311 26.0702L57.4548 26.4266C57.5453 26.5487 57.6393 26.6442 57.7354 26.7341C57.3427 26.8597 56.9629 27.0507 56.6394 27.2964C55.8127 27.901 55.328 28.7999 54.9565 29.5889C54.5648 30.3918 54.2201 31.2163 53.9241 32.0582C53.6228 32.9024 53.4058 33.7732 53.1593 34.5847C52.9108 35.3982 52.6132 36.1735 52.1569 36.8226C51.7068 37.4753 51.0909 37.9819 50.3602 38.3307C49.6332 38.6846 48.8235 38.8736 47.9838 38.9758C47.1494 39.0792 46.3053 39.0807 45.4705 38.9803C45.3362 38.964 45.1915 38.9998 45.0788 39.0912L41.747 41.7903C41.1993 42.2463 40.6609 42.6968 40.1018 43.0992C39.8222 43.3009 39.538 43.4904 39.2466 43.6635C39.15 43.7213 39.0508 43.7739 38.9526 43.827C38.8988 43.5854 38.8079 43.3209 38.6565 43.0859C38.5067 42.851 38.3031 42.6202 38.0085 42.4593C37.9324 42.4166 37.8517 42.3827 37.7677 42.3582C37.6701 42.3352 37.5466 42.3061 37.4649 42.3102C37.31 42.3096 37.1555 42.3278 37.0051 42.3643C36.4966 42.4986 36.1049 42.6942 35.7158 42.8449C35.5367 42.9188 35.3531 42.9818 35.166 43.0333L35.1423 43.0384C35.1955 42.9634 35.2523 42.8868 35.3107 42.8117C35.5711 42.4829 35.8427 42.163 36.1251 41.8526C36.6993 41.2199 37.29 40.6019 37.8964 39.9992C37.9657 39.9297 38.0135 39.842 38.0341 39.7465C38.0547 39.6511 38.0473 39.5518 38.0127 39.4603C37.9781 39.3689 37.9178 39.2891 37.8389 39.2304C37.76 39.1717 37.6657 39.1365 37.5673 39.129L37.5497 39.1274L36.9456 39.083C36.7493 39.0498 36.5493 39.0278 36.3555 38.987C35.9711 38.8991 35.5913 38.7924 35.2467 38.6254C34.9189 38.472 34.6153 38.2725 34.3455 38.033C34.8798 38.1024 35.4161 38.1464 35.9566 38.1045C36.9131 38.0667 37.8571 37.8936 38.7712 37.6566C39.6874 37.4206 40.5673 37.0729 41.4008 36.6541C42.2338 36.2348 43.0176 35.7205 43.7064 35.1112C42.9432 35.6265 42.1036 36.0065 41.2525 36.3236C40.3994 36.6362 39.5205 36.8716 38.6286 36.9947C37.7388 37.1188 36.8423 37.1796 35.9546 37.1122C35.5107 37.0969 35.0705 37.0519 34.6271 37.0325C34.1843 37.0039 33.7487 36.9064 33.3084 36.8481L33.2511 36.8405C33.1645 36.8293 33.0764 36.8406 32.9956 36.8733C32.9147 36.906 32.8439 36.959 32.7901 37.027C32.7363 37.095 32.7014 37.1757 32.6888 37.2611C32.6762 37.3466 32.6864 37.4337 32.7183 37.5141C32.8367 37.8134 32.9591 37.9937 33.1095 38.2041C33.2562 38.4043 33.4237 38.5851 33.603 38.7505C33.9596 39.0752 34.3644 39.3441 34.8033 39.5477C35.2343 39.7551 35.6885 39.8838 36.1427 39.9864C36.2357 40.0058 36.3287 40.0207 36.4217 40.0355C36.0588 40.4089 35.7024 40.7884 35.3526 41.1738C35.0532 41.5027 34.7655 41.8419 34.4902 42.1907C34.3507 42.373 34.2142 42.5543 34.0809 42.7836C34.0473 42.849 34.0148 42.9011 33.9812 42.9869C33.9652 43.0246 33.9487 43.0629 33.9331 43.1273L33.913 43.2141C33.9064 43.2615 33.9039 43.3093 33.9058 43.3571C33.9094 43.4097 33.9052 43.446 33.9414 43.5435C33.9657 43.6181 34.038 43.7269 34.0618 43.7468C34.1011 43.7846 34.1429 43.8208 34.1863 43.8561C34.2716 43.9322 34.3646 43.9812 34.4638 44.0139C34.8617 44.1508 35.1655 44.0777 35.4177 44.0241C35.6647 43.9577 35.8936 43.8775 36.1008 43.7927C36.5188 43.6263 36.9146 43.4429 37.2484 43.3571C37.3254 43.3413 37.3962 43.33 37.4339 43.3316C37.4613 43.328 37.4432 43.3398 37.4525 43.3316C37.4735 43.336 37.4934 43.3441 37.5114 43.3556C37.5998 43.4021 37.6995 43.5001 37.7791 43.6278C37.8582 43.7504 37.9093 43.8903 37.947 44.0629L37.9605 44.1278L37.9662 44.1676L37.9765 44.3096C37.992 44.4281 37.977 44.5757 38.1036 44.8325L38.1093 44.8443C38.1619 44.9498 38.2524 45.0322 38.3632 45.0752C38.474 45.1181 38.597 45.1187 38.7082 45.0767C38.9572 44.9827 39.1164 44.9 39.2833 44.8147C39.4512 44.7273 39.6166 44.6359 39.7778 44.5394C40.0976 44.3483 40.4087 44.1431 40.71 43.9245C41.3088 43.493 41.8653 43.0262 42.4131 42.5706L45.5682 40.0145C46.4171 40.1014 47.2677 40.0901 48.1089 39.9895C49.0183 39.8792 49.9526 39.6672 50.8139 39.248C51.6748 38.8414 52.4623 38.1969 53.0059 37.4038C53.5588 36.6147 53.8864 35.7317 54.1478 34.8799C54.4082 34.0203 54.6134 33.194 54.9002 32.3917C55.1836 31.5848 55.514 30.7948 55.8897 30.0256C56.2571 29.2452 56.6503 28.5558 57.2621 28.1104C57.8563 27.6477 58.6004 27.5267 59.454 27.5349H59.4706C59.6076 27.5346 59.7389 27.4805 59.8356 27.3846C59.9323 27.2886 59.9865 27.1586 59.9862 27.0231C59.986 26.8877 59.9313 26.7579 59.8342 26.6623C59.7371 26.5667 59.6055 26.5132 59.4685 26.5135ZM34.934 43.3806C34.932 43.3857 34.9309 43.3878 34.934 43.3806ZM44.0072 16.8039C44.1663 17.2472 44.3921 17.667 44.6572 18.05C44.9243 18.4351 45.2695 18.7553 45.6245 19.0382C45.3305 18.6889 45.0685 18.3232 44.8928 17.9152C44.714 17.5117 44.5688 17.0991 44.4944 16.6685C44.424 16.2772 44.3879 15.8806 44.3864 15.4832C44.5693 15.6604 44.7554 15.8284 44.9497 15.9781C45.2302 16.1966 45.518 16.3979 45.8141 16.5822C46.1128 16.7686 46.4042 16.9382 46.7308 17.1042C46.8349 17.1569 46.9541 17.173 47.0688 17.1499C47.1834 17.1267 47.2867 17.0657 47.3616 16.9768C47.4364 16.888 47.4785 16.7766 47.4808 16.6609C47.483 16.5453 47.4454 16.4323 47.3741 16.3407L47.3571 16.3187C47.0517 15.9265 46.7587 15.5194 46.5577 15.0573C46.3434 14.5984 46.1827 14.117 46.0787 13.6222C46.0067 13.2735 45.9569 12.9208 45.9294 12.566C46.0828 12.7412 46.2358 12.9164 46.4006 13.0747C46.6274 13.2917 46.8496 13.4899 47.1085 13.6932C47.1923 13.759 47.2947 13.7973 47.4015 13.8028C47.5083 13.8084 47.6143 13.7809 47.7045 13.7241C47.7948 13.6673 47.8649 13.5841 47.905 13.4861C47.9452 13.3881 47.9534 13.2802 47.9286 13.1773L47.9208 13.1462C47.8412 12.8188 47.7508 12.493 47.6785 12.1646C47.6335 11.8332 47.5524 11.5037 47.5348 11.1713C47.464 10.5063 47.4914 9.84088 47.5736 9.18666C47.6805 8.53653 47.8629 7.9007 48.1394 7.30726C48.159 7.26487 48.1833 7.22299 48.204 7.1806C48.2624 8.19334 48.5233 9.1882 48.9093 10.0962C49.2234 10.8435 49.6085 11.5597 50.0595 12.2351C50.5147 12.9062 51.0149 13.5108 51.4536 14.1242C51.8933 14.7144 52.2487 15.3616 52.5098 16.0475C52.6447 16.3897 52.7253 16.7497 52.8395 17.1021C52.9537 17.455 53.0689 17.8125 53.1531 18.1797C53.5091 19.647 53.6368 21.1944 53.6512 22.7511C53.967 21.2261 54.1323 19.6475 54.0021 18.0485C53.9736 17.6459 53.9225 17.2453 53.8491 16.8483C53.7716 16.4489 53.6182 16.0685 53.4766 15.6854C53.1841 14.9187 52.7874 14.1948 52.2974 13.5338C51.8303 12.8821 51.3363 12.2841 50.9188 11.6667C50.5056 11.0473 50.1524 10.3906 49.8642 9.70554C49.2886 8.34706 49.0411 6.86192 49.3687 5.46871L49.3749 5.44215C49.3991 5.33611 49.388 5.22515 49.3431 5.12589C49.2982 5.02664 49.222 4.94442 49.1259 4.89157C49.0297 4.83871 48.9189 4.81806 48.8099 4.83271C48.7009 4.84736 48.5996 4.89651 48.5212 4.97281C47.9146 5.56268 47.5317 6.18523 47.2005 6.87827C46.8801 7.56466 46.6709 8.29497 46.5505 9.0355C46.4549 9.77806 46.427 10.5283 46.5045 11.2658C46.5138 11.4266 46.5381 11.585 46.5634 11.7428C46.3979 11.5472 46.2551 11.3339 46.1376 11.1069C46.0296 10.8955 45.9691 10.683 45.9826 10.5344L45.9836 10.5222C45.9959 10.3899 45.9555 10.258 45.871 10.1547C45.7865 10.0514 45.6646 9.98471 45.5311 9.96888C45.3976 9.95305 45.2632 9.9893 45.1563 10.0699C45.0495 10.1506 44.9787 10.2692 44.959 10.4006C44.9564 10.418 44.9564 10.4333 44.9538 10.4502H44.9522V10.4619C44.7897 11.5847 44.8282 12.727 45.0659 13.8367C45.1491 14.2468 45.2747 14.6507 45.4302 15.045C45.2452 14.8923 45.0695 14.734 44.929 14.5608C44.7517 14.3377 44.5797 14.1273 44.4924 13.9291L44.4443 13.8198C44.4021 13.7233 44.3278 13.6439 44.2339 13.5947C44.1399 13.5455 44.0318 13.5294 43.9273 13.549C43.8228 13.5686 43.7282 13.6228 43.659 13.7027C43.5898 13.7825 43.5503 13.8833 43.5468 13.9883C43.5276 14.5042 43.5716 14.9592 43.6449 15.4336C43.725 15.902 43.8444 16.3616 44.0072 16.8039Z" fill="white"/>
<path d="M22.388 52.2488C22.3656 52.2472 22.3536 52.2522 22.3536 52.2624C22.3055 52.4898 22.2146 52.6646 22.0841 52.7902C21.9519 52.914 21.787 52.9768 21.5879 52.9768H21.1861C21.0711 52.9768 20.9836 52.9666 20.9269 52.9463C20.872 52.9259 20.8325 52.8903 20.8084 52.8428C20.7861 52.7935 20.7758 52.7223 20.7758 52.6256V51.3495H21.4128C21.6085 51.3495 21.7493 51.3851 21.8351 51.4581C21.9227 51.5294 21.9656 51.6482 21.9656 51.8111C21.9656 51.8195 21.9759 51.8229 21.9999 51.8229C22.0223 51.8229 22.0326 51.8195 22.0326 51.8111L22.0274 51.5328C22.024 51.4768 22.0223 51.3953 22.0223 51.2867L22.0274 50.8252C22.0274 50.8167 22.0154 50.8133 21.9931 50.8133C21.9708 50.8133 21.9605 50.8167 21.9605 50.8252C21.9605 50.966 21.9175 51.0678 21.8334 51.1306C21.7476 51.1951 21.6119 51.2256 21.4231 51.2256H20.7758V50.0887C20.7758 49.9513 20.8033 49.8579 20.8599 49.8104C20.9166 49.7612 21.0333 49.7375 21.2102 49.7375H21.5192C21.7081 49.7375 21.8592 49.7918 21.9759 49.8987C22.0927 50.0073 22.163 50.1617 22.1854 50.3619C22.1854 50.3738 22.1957 50.3789 22.2163 50.3789C22.2369 50.3789 22.2472 50.3738 22.2472 50.3619L22.2352 49.6662C22.2352 49.6323 22.2197 49.6153 22.1854 49.6153H19.8951C19.8882 49.6153 19.8848 49.6272 19.8848 49.6492C19.8848 49.6713 19.8882 49.6815 19.8951 49.6815C20.0341 49.6815 20.1354 49.6916 20.2007 49.712C20.2642 49.7324 20.3071 49.7697 20.3294 49.8206C20.3518 49.8732 20.3638 49.9547 20.3638 50.0667V52.6476C20.3638 52.7596 20.3518 52.8411 20.3294 52.8954C20.3071 52.9497 20.2642 52.9853 20.2007 53.004C20.1354 53.0226 20.0341 53.0328 19.8951 53.0328C19.8882 53.0328 19.8848 53.043 19.8848 53.065C19.8848 53.0871 19.8882 53.099 19.8951 53.099H22.2815C22.3141 53.099 22.3382 53.0922 22.3519 53.0803C22.3639 53.0667 22.3708 53.0447 22.3708 53.0158C22.3708 52.7596 22.388 52.5102 22.4223 52.2692C22.4223 52.2573 22.4103 52.2505 22.388 52.2488ZM26.6801 53.065C26.6801 53.043 26.6732 53.0328 26.6578 53.0328C26.541 53.0328 26.438 52.9836 26.347 52.8869C26.2578 52.7902 26.1479 52.6069 26.0208 52.3354L24.6782 49.5712C24.6748 49.5593 24.6611 49.5542 24.6388 49.5542C24.6164 49.5542 24.601 49.5593 24.5941 49.5712L23.4026 52.3235C23.3202 52.517 23.2447 52.6646 23.1777 52.7647C23.1108 52.8648 23.0404 52.9344 22.9665 52.9734C22.8927 53.0124 22.8034 53.0328 22.6987 53.0328C22.6798 53.0328 22.6695 53.043 22.6695 53.065C22.6695 53.0871 22.6798 53.099 22.6987 53.099C22.7777 53.099 22.8738 53.0956 22.9854 53.0871C23.1211 53.0803 23.2361 53.0769 23.3305 53.0769C23.4352 53.0769 23.5589 53.0803 23.7031 53.0871C23.8301 53.0956 23.928 53.099 23.9949 53.099C24.0138 53.099 24.0241 53.0871 24.0241 53.065C24.0241 53.043 24.0138 53.0328 23.9949 53.0328C23.631 53.0328 23.449 52.9157 23.449 52.6816C23.449 52.5882 23.473 52.4864 23.5211 52.3744L24.4911 50.1447L25.6878 52.6137C25.7393 52.7257 25.7667 52.8088 25.7667 52.8648C25.7667 52.9276 25.7376 52.9717 25.6792 52.9955C25.6208 53.0192 25.5247 53.0328 25.389 53.0328C25.3736 53.0328 25.3667 53.043 25.3667 53.065C25.3667 53.0871 25.3736 53.099 25.389 53.099C25.456 53.099 25.5504 53.0956 25.6706 53.0871C25.7976 53.0803 25.9058 53.0769 25.9916 53.0769C26.0638 53.0769 26.1736 53.0803 26.3247 53.0871C26.4758 53.0956 26.5857 53.099 26.6578 53.099C26.6732 53.099 26.6801 53.0871 26.6801 53.065ZM29.4048 52.2488C29.3807 52.2472 29.3704 52.2522 29.3704 52.2624C29.3206 52.4898 29.2314 52.6646 29.0992 52.7902C28.9687 52.914 28.8022 52.9768 28.603 52.9768H28.203C28.0862 52.9768 28.0004 52.9666 27.9437 52.9463C27.8871 52.9259 27.8476 52.8903 27.8253 52.8428C27.8029 52.7935 27.7909 52.7223 27.7909 52.6256V51.3495H28.4279C28.6236 51.3495 28.7644 51.3851 28.8519 51.4581C28.9378 51.5294 28.9807 51.6482 28.9807 51.8111C28.9807 51.8195 28.9927 51.8229 29.015 51.8229C29.0374 51.8229 29.0494 51.8195 29.0494 51.8111L29.0425 51.5328C29.0391 51.4768 29.0374 51.3953 29.0374 51.2867L29.0425 50.8252C29.0425 50.8167 29.0322 50.8133 29.0099 50.8133C28.9859 50.8133 28.9756 50.8167 28.9756 50.8252C28.9756 50.966 28.9326 51.0678 28.8485 51.1306C28.7644 51.1951 28.627 51.2256 28.4399 51.2256H27.7909V50.0887C27.7909 49.9513 27.8201 49.8579 27.875 49.8104C27.9317 49.7612 28.0484 49.7375 28.2253 49.7375H28.536C28.7232 49.7375 28.876 49.7918 28.9927 49.8987C29.1095 50.0073 29.1781 50.1617 29.2005 50.3619C29.2005 50.3738 29.2108 50.3789 29.2314 50.3789C29.252 50.3789 29.2623 50.3738 29.2623 50.3619L29.252 49.6662C29.252 49.6323 29.2348 49.6153 29.2005 49.6153H26.9119C26.9033 49.6153 26.8999 49.6272 26.8999 49.6492C26.8999 49.6713 26.9033 49.6815 26.9119 49.6815C27.051 49.6815 27.1522 49.6916 27.2158 49.712C27.2793 49.7324 27.3222 49.7697 27.3463 49.8206C27.3686 49.8732 27.3789 49.9547 27.3789 50.0667V52.6476C27.3789 52.7596 27.3686 52.8411 27.3463 52.8954C27.3222 52.9497 27.2793 52.9853 27.2158 53.004C27.1522 53.0226 27.051 53.0328 26.9119 53.0328C26.9033 53.0328 26.8999 53.043 26.8999 53.065C26.8999 53.0871 26.9033 53.099 26.9119 53.099H29.2966C29.3309 53.099 29.355 53.0922 29.367 53.0803C29.3807 53.0667 29.3876 53.0447 29.3876 53.0158C29.3876 52.7596 29.4048 52.5102 29.4374 52.2692C29.4374 52.2573 29.4271 52.2505 29.4048 52.2488ZM33.8137 53.065C33.8137 53.043 33.8085 53.0328 33.7965 53.0328C33.654 53.0328 33.551 53.0226 33.484 53.004C33.4188 52.9853 33.3742 52.9497 33.3484 52.8954C33.3244 52.8411 33.3123 52.7596 33.3123 52.6476V50.0667C33.3123 49.9547 33.3244 49.8732 33.3484 49.8206C33.3742 49.7697 33.4188 49.7324 33.484 49.712C33.551 49.6916 33.654 49.6815 33.7965 49.6815C33.8085 49.6815 33.8137 49.6713 33.8137 49.6492C33.8137 49.6272 33.8085 49.6153 33.7965 49.6153L33.5149 49.6204C33.3501 49.6289 33.2162 49.6323 33.1149 49.6323C32.9913 49.6323 32.8454 49.6289 32.6805 49.6204L32.4161 49.6153C32.4041 49.6153 32.399 49.6272 32.399 49.6492C32.399 49.6713 32.4041 49.6815 32.4161 49.6815C32.5586 49.6815 32.6634 49.6933 32.732 49.7154C32.799 49.7375 32.8454 49.7765 32.8694 49.8291C32.8934 49.8834 32.9055 49.9665 32.9055 50.0785V51.2256H30.8023V50.0785C30.8023 49.9665 30.8143 49.8834 30.8401 49.8291C30.8641 49.7765 30.9105 49.7375 30.9774 49.7154C31.0444 49.6933 31.1508 49.6815 31.2933 49.6815C31.3002 49.6815 31.3053 49.6713 31.3053 49.6492C31.3053 49.6272 31.3002 49.6153 31.2933 49.6153L31.0169 49.6204C30.8435 49.6289 30.701 49.6323 30.5877 49.6323C30.4864 49.6323 30.3576 49.6289 30.1997 49.6204L29.9112 49.6153C29.9044 49.6153 29.9009 49.6272 29.9009 49.6492C29.9009 49.6713 29.9044 49.6815 29.9112 49.6815C30.0503 49.6815 30.1533 49.6916 30.2186 49.712C30.2855 49.7324 30.3302 49.7697 30.3542 49.8206C30.3782 49.8732 30.3902 49.9547 30.3902 50.0667V52.6476C30.3902 52.7596 30.3782 52.8411 30.3542 52.8954C30.3302 52.9497 30.2855 52.9853 30.2186 53.004C30.1533 53.0226 30.0486 53.0328 29.9061 53.0328C29.8992 53.0328 29.8941 53.043 29.8941 53.065C29.8941 53.0871 29.8992 53.099 29.9061 53.099C30.0297 53.099 30.1259 53.0973 30.1928 53.0939L30.5877 53.0871L31.0118 53.0939C31.0787 53.0973 31.1731 53.099 31.2933 53.099C31.3002 53.099 31.3053 53.0871 31.3053 53.065C31.3053 53.043 31.3002 53.0328 31.2933 53.0328C31.1474 53.0328 31.0409 53.0226 30.974 53.004C30.9087 52.9853 30.8641 52.9497 30.8401 52.8954C30.8143 52.8411 30.8023 52.7596 30.8023 52.6476V51.3495H32.9055V52.6476C32.9055 52.7596 32.8934 52.8411 32.8694 52.8954C32.8454 52.9497 32.8007 52.9853 32.7338 53.004C32.6685 53.0226 32.5621 53.0328 32.4161 53.0328C32.4041 53.0328 32.399 53.043 32.399 53.065C32.399 53.0871 32.4041 53.099 32.4161 53.099C32.5277 53.099 32.617 53.0973 32.6805 53.0939L33.1149 53.0871L33.5149 53.0939C33.5836 53.0973 33.6763 53.099 33.7965 53.099C33.8085 53.099 33.8137 53.0871 33.8137 53.065ZM37.9822 53.065C37.9822 53.043 37.9736 53.0328 37.9599 53.0328C37.8431 53.0328 37.7401 52.9836 37.6491 52.8869C37.5599 52.7902 37.45 52.6069 37.3229 52.3354L35.9804 49.5712C35.9769 49.5593 35.9632 49.5542 35.9409 49.5542C35.9185 49.5542 35.9031 49.5593 35.8945 49.5712L34.7047 52.3235C34.6223 52.517 34.5468 52.6646 34.4798 52.7647C34.4129 52.8648 34.3407 52.9344 34.2686 52.9734C34.1948 53.0124 34.1055 53.0328 34.0008 53.0328C33.9819 53.0328 33.9716 53.043 33.9716 53.065C33.9716 53.0871 33.9819 53.099 34.0008 53.099C34.0798 53.099 34.1759 53.0956 34.2875 53.0871C34.4232 53.0803 34.5382 53.0769 34.6326 53.0769C34.7373 53.0769 34.861 53.0803 35.0035 53.0871C35.1322 53.0956 35.2301 53.099 35.297 53.099C35.3159 53.099 35.3262 53.0871 35.3262 53.065C35.3262 53.043 35.3159 53.0328 35.297 53.0328C34.9331 53.0328 34.7511 52.9157 34.7511 52.6816C34.7511 52.5882 34.7751 52.4864 34.8232 52.3744L35.1563 51.6108H36.504L36.9899 52.6137C37.0414 52.7257 37.0688 52.8088 37.0688 52.8648C37.0688 52.9276 37.0397 52.9717 36.9813 52.9955C36.9229 53.0192 36.825 53.0328 36.6911 53.0328C36.6757 53.0328 36.6671 53.043 36.6671 53.065C36.6671 53.0871 36.6757 53.099 36.6911 53.099C36.7581 53.099 36.8525 53.0956 36.9727 53.0871C37.0997 53.0803 37.2079 53.0769 37.2938 53.0769C37.3659 53.0769 37.4757 53.0803 37.6268 53.0871C37.7779 53.0956 37.8878 53.099 37.9599 53.099C37.9736 53.099 37.9822 53.0871 37.9822 53.065ZM35.2078 51.4937L35.7932 50.1447L36.4473 51.4937H35.2078ZM40.633 53.1041C40.779 53.116 40.9095 53.121 41.0211 53.121C41.3679 53.121 41.6855 53.0464 41.9774 52.8954C42.2692 52.7443 42.501 52.5305 42.671 52.2539C42.8427 51.9773 42.9285 51.6583 42.9285 51.2986C42.9285 50.9796 42.8461 50.6911 42.6795 50.4349C42.5147 50.1787 42.2812 49.975 41.9808 49.8274C41.6803 49.6781 41.3335 49.6034 40.9421 49.6034C40.882 49.6034 40.7618 49.6085 40.5815 49.6153C40.4425 49.6272 40.3017 49.6323 40.1592 49.6323C40.0648 49.6323 39.936 49.6289 39.7695 49.6204L39.4879 49.6153C39.481 49.6153 39.4759 49.6272 39.4759 49.6492C39.4759 49.6713 39.481 49.6815 39.4879 49.6815C39.627 49.6815 39.7283 49.6916 39.7918 49.712C39.857 49.7324 39.8999 49.7697 39.9223 49.8206C39.9446 49.8732 39.9566 49.9547 39.9566 50.0667V52.6476C39.9566 52.7596 39.9429 52.8411 39.9188 52.8954C39.8948 52.9497 39.8502 52.9853 39.7866 53.004C39.7231 53.0226 39.6218 53.0328 39.4828 53.0328C39.4742 53.0328 39.4707 53.043 39.4707 53.065C39.4707 53.0871 39.4742 53.099 39.4828 53.099C39.6029 53.099 39.6991 53.0973 39.7695 53.0939L40.1592 53.0871C40.2571 53.0871 40.3463 53.0905 40.427 53.0939C40.5077 53.0973 40.5764 53.1007 40.633 53.1041ZM41.7353 52.8461C41.5121 52.97 41.2546 53.0328 40.9661 53.0328C40.7292 53.0328 40.5695 52.9989 40.4888 52.931C40.4081 52.8648 40.3669 52.7494 40.3669 52.5865V50.0785C40.3669 49.9665 40.3875 49.8834 40.4305 49.8291C40.4717 49.7765 40.5352 49.7392 40.621 49.7205C40.7086 49.7018 40.8322 49.6933 40.9936 49.6933C41.2837 49.6933 41.5378 49.7697 41.7576 49.9224C41.9774 50.0734 42.1473 50.2805 42.2675 50.5435C42.3877 50.8048 42.4495 51.0984 42.4495 51.4208C42.4495 51.7601 42.386 52.0503 42.2589 52.293C42.1336 52.5373 41.9585 52.7206 41.7353 52.8461ZM47.1176 53.065C47.1176 53.043 47.1108 53.0328 47.0953 53.0328C46.9786 53.0328 46.8756 52.9836 46.7863 52.8869C46.6953 52.7902 46.5871 52.6069 46.4584 52.3354L45.1158 49.5712C45.1123 49.5593 45.0986 49.5542 45.0763 49.5542C45.054 49.5542 45.0385 49.5593 45.0317 49.5712L43.8419 52.3235C43.7595 52.517 43.6839 52.6646 43.6152 52.7647C43.5483 52.8648 43.4779 52.9344 43.4041 52.9734C43.332 53.0124 43.2427 53.0328 43.1362 53.0328C43.1173 53.0328 43.1088 53.043 43.1088 53.065C43.1088 53.0871 43.1173 53.099 43.1362 53.099C43.2152 53.099 43.3114 53.0956 43.4247 53.0871C43.5603 53.0803 43.6736 53.0769 43.768 53.0769C43.8728 53.0769 43.9981 53.0803 44.1406 53.0871C44.2676 53.0956 44.3655 53.099 44.4342 53.099C44.4531 53.099 44.4617 53.0871 44.4617 53.065C44.4617 53.043 44.4531 53.0328 44.4342 53.0328C44.0685 53.0328 43.8865 52.9157 43.8865 52.6816C43.8865 52.5882 43.9105 52.4864 43.9603 52.3744L44.2934 51.6108H45.6411L46.1253 52.6137C46.1785 52.7257 46.2043 52.8088 46.2043 52.8648C46.2043 52.9276 46.1751 52.9717 46.1167 52.9955C46.0583 53.0192 45.9622 53.0328 45.8266 53.0328C45.8111 53.0328 45.8042 53.043 45.8042 53.065C45.8042 53.0871 45.8111 53.099 45.8266 53.099C45.8952 53.099 45.9879 53.0956 46.1081 53.0871C46.2369 53.0803 46.3433 53.0769 46.4309 53.0769C46.5013 53.0769 46.6129 53.0803 46.7622 53.0871C46.9133 53.0956 47.0249 53.099 47.0953 53.099C47.1108 53.099 47.1176 53.0871 47.1176 53.065ZM44.3432 51.4937L44.9304 50.1447L45.5845 51.4937H44.3432ZM51.2072 53.065C51.2072 53.043 51.2021 53.0328 51.19 53.0328C51.0475 53.0328 50.9428 53.0226 50.8776 53.004C50.8106 52.9853 50.766 52.9497 50.7419 52.8954C50.7179 52.8411 50.7059 52.7596 50.7059 52.6476V50.0667C50.7059 49.9547 50.7179 49.8732 50.7419 49.8206C50.766 49.7697 50.8106 49.7324 50.8776 49.712C50.9428 49.6916 51.0475 49.6815 51.19 49.6815C51.2021 49.6815 51.2072 49.6713 51.2072 49.6492C51.2072 49.6272 51.2021 49.6153 51.19 49.6153L50.9085 49.6204C50.7419 49.6289 50.6097 49.6323 50.5084 49.6323C50.3831 49.6323 50.2389 49.6289 50.0741 49.6204L49.808 49.6153C49.7977 49.6153 49.7908 49.6272 49.7908 49.6492C49.7908 49.6713 49.7977 49.6815 49.808 49.6815C49.9505 49.6815 50.0569 49.6933 50.1239 49.7154C50.1925 49.7375 50.2372 49.7765 50.2629 49.8291C50.287 49.8834 50.299 49.9665 50.299 50.0785V51.2256H48.1958V50.0785C48.1958 49.9665 48.2078 49.8834 48.2319 49.8291C48.2559 49.7765 48.3023 49.7375 48.371 49.7154C48.4379 49.6933 48.5426 49.6815 48.6869 49.6815C48.6937 49.6815 48.6972 49.6713 48.6972 49.6492C48.6972 49.6272 48.6937 49.6153 48.6869 49.6153L48.4104 49.6204C48.237 49.6289 48.0945 49.6323 47.9812 49.6323C47.8799 49.6323 47.7494 49.6289 47.5915 49.6204L47.3048 49.6153C47.2962 49.6153 47.2928 49.6272 47.2928 49.6492C47.2928 49.6713 47.2962 49.6815 47.3048 49.6815C47.4438 49.6815 47.5451 49.6916 47.6121 49.712C47.6773 49.7324 47.722 49.7697 47.7477 49.8206C47.7718 49.8732 47.7838 49.9547 47.7838 50.0667V52.6476C47.7838 52.7596 47.7718 52.8411 47.7477 52.8954C47.722 52.9497 47.6773 52.9853 47.6121 53.004C47.5451 53.0226 47.4421 53.0328 47.2996 53.0328C47.291 53.0328 47.2876 53.043 47.2876 53.065C47.2876 53.0871 47.291 53.099 47.2996 53.099C47.4232 53.099 47.5194 53.0973 47.5863 53.0939L47.9812 53.0871L48.4036 53.0939C48.4722 53.0973 48.5667 53.099 48.6869 53.099C48.6937 53.099 48.6972 53.0871 48.6972 53.065C48.6972 53.043 48.6937 53.0328 48.6869 53.0328C48.5392 53.0328 48.4328 53.0226 48.3675 53.004C48.3023 52.9853 48.2559 52.9497 48.2319 52.8954C48.2078 52.8411 48.1958 52.7596 48.1958 52.6476V51.3495H50.299V52.6476C50.299 52.7596 50.287 52.8411 50.2629 52.8954C50.2372 52.9497 50.1925 52.9853 50.1273 53.004C50.0621 53.0226 49.9556 53.0328 49.808 53.0328C49.7977 53.0328 49.7908 53.043 49.7908 53.065C49.7908 53.0871 49.7977 53.099 49.808 53.099C49.9213 53.099 50.0088 53.0973 50.0741 53.0939L50.5084 53.0871L50.9085 53.0939C50.9754 53.0973 51.0699 53.099 51.19 53.099C51.2021 53.099 51.2072 53.0871 51.2072 53.065ZM55.5389 53.065C55.5389 53.043 55.532 53.0328 55.5217 53.0328C55.3826 53.0328 55.2796 53.0226 55.2109 53.004C55.144 52.9853 55.0976 52.9497 55.0736 52.8954C55.0478 52.8411 55.0358 52.7596 55.0358 52.6476V49.6034C55.0358 49.5932 55.0272 49.583 55.0118 49.5763C54.9946 49.5695 54.974 49.5644 54.9517 49.5644C54.9173 49.5644 54.895 49.5729 54.8847 49.5881L52.4811 52.6137V50.0667C52.4811 49.9547 52.4931 49.8732 52.5189 49.8206C52.5429 49.7697 52.5876 49.7324 52.6545 49.712C52.7198 49.6916 52.8262 49.6815 52.9721 49.6815C52.9842 49.6815 52.9893 49.6713 52.9893 49.6492C52.9893 49.6272 52.9842 49.6153 52.9721 49.6153L52.7077 49.6204C52.5412 49.6289 52.397 49.6323 52.2734 49.6323C52.179 49.6323 52.0485 49.6289 51.8836 49.6204L51.5901 49.6153C51.5798 49.6153 51.5729 49.6272 51.5729 49.6492C51.5729 49.6713 51.5798 49.6815 51.5901 49.6815C51.7291 49.6815 51.8321 49.6916 51.8974 49.712C51.9643 49.7324 52.009 49.7697 52.033 49.8206C52.0571 49.8732 52.0708 49.9547 52.0708 50.0667V53.1329C52.0708 53.1431 52.0794 53.1533 52.0983 53.1601C52.1171 53.1686 52.1377 53.172 52.1601 53.172C52.1978 53.172 52.2219 53.1652 52.2339 53.155L54.6255 50.1328V52.6476C54.6255 52.763 54.6135 52.8461 54.5911 52.8988C54.5688 52.9497 54.5242 52.9853 54.4589 53.004C54.392 53.0226 54.2855 53.0328 54.1396 53.0328C54.1276 53.0328 54.1224 53.043 54.1224 53.065C54.1224 53.0871 54.1276 53.099 54.1396 53.099C54.2529 53.099 54.3422 53.0973 54.4109 53.0939L54.8332 53.0871L55.2401 53.0939C55.3071 53.0973 55.4015 53.099 55.5217 53.099C55.532 53.099 55.5389 53.0871 55.5389 53.065ZM59.7057 53.065C59.7057 53.043 59.6988 53.0328 59.6834 53.0328C59.5666 53.0328 59.4636 52.9836 59.3726 52.8869C59.2833 52.7902 59.1734 52.6069 59.0464 52.3354L57.7038 49.5712C57.7004 49.5593 57.6866 49.5542 57.6643 49.5542C57.642 49.5542 57.6266 49.5593 57.6197 49.5712L56.4299 52.3235C56.3475 52.517 56.272 52.6646 56.2033 52.7647C56.1363 52.8648 56.0659 52.9344 55.9921 52.9734C55.9183 53.0124 55.829 53.0328 55.7243 53.0328C55.7054 53.0328 55.6968 53.043 55.6968 53.065C55.6968 53.0871 55.7054 53.099 55.7243 53.099C55.8032 53.099 55.8994 53.0956 56.0127 53.0871C56.1466 53.0803 56.2616 53.0769 56.3561 53.0769C56.4608 53.0769 56.5861 53.0803 56.7286 53.0871C56.8557 53.0956 56.9535 53.099 57.0222 53.099C57.0411 53.099 57.0497 53.0871 57.0497 53.065C57.0497 53.043 57.0411 53.0328 57.0222 53.0328C56.6565 53.0328 56.4745 52.9157 56.4745 52.6816C56.4745 52.5882 56.4986 52.4864 56.5484 52.3744L57.5184 50.1447L58.7133 52.6137C58.7666 52.7257 58.7923 52.8088 58.7923 52.8648C58.7923 52.9276 58.7631 52.9717 58.7047 52.9955C58.6464 53.0192 58.5502 53.0328 58.4146 53.0328C58.3991 53.0328 58.3923 53.043 58.3923 53.065C58.3923 53.0871 58.3991 53.099 58.4146 53.099C58.4816 53.099 58.576 53.0956 58.6962 53.0871C58.8249 53.0803 58.9314 53.0769 59.0172 53.0769C59.0893 53.0769 59.2009 53.0803 59.3503 53.0871C59.5014 53.0956 59.6112 53.099 59.6834 53.099C59.6988 53.099 59.7057 53.0871 59.7057 53.065ZM60.7581 52.9242C61.0311 53.0854 61.3418 53.1652 61.6921 53.1652C62.044 53.1652 62.372 53.0837 62.6758 52.9208C62.978 52.7579 63.2201 52.5339 63.4004 52.2522C63.5806 51.9689 63.6716 51.6583 63.6716 51.3207C63.6716 51.0169 63.5978 50.7284 63.4536 50.4569C63.3094 50.1854 63.1016 49.9665 62.8304 49.8019C62.5591 49.6373 62.2466 49.5542 61.8878 49.5542C61.5685 49.5542 61.256 49.6221 60.9504 49.7595C60.6431 49.897 60.3924 50.1023 60.1967 50.3755C60.001 50.6487 59.9031 50.9779 59.9031 51.3597C59.9031 51.6872 59.9769 51.9892 60.1263 52.2658C60.274 52.5424 60.4851 52.7613 60.7581 52.9242ZM62.5574 52.8597C62.3599 52.9819 62.1368 53.043 61.8878 53.043C61.5959 53.043 61.3333 52.9598 61.1049 52.7952C60.8749 52.6306 60.6963 52.4033 60.5693 52.1182C60.4405 51.8314 60.377 51.5141 60.377 51.1645C60.377 50.7047 60.4903 50.3432 60.7152 50.0802C60.9418 49.8189 61.2543 49.6883 61.6577 49.6883C61.9651 49.6883 62.2363 49.7646 62.4698 49.9156C62.7033 50.0684 62.8819 50.2805 63.0089 50.552C63.1342 50.8235 63.1978 51.1306 63.1978 51.4768C63.1978 51.8043 63.1394 52.0859 63.0244 52.3218C62.9111 52.5577 62.7548 52.7359 62.5574 52.8597ZM66.5731 51.4343C66.3894 51.263 66.1491 51.1628 65.8469 51.1374C66.0546 51.0593 66.216 50.9507 66.3328 50.8116C66.4495 50.6707 66.5079 50.5129 66.5079 50.3348C66.5079 50.1108 66.4272 49.9326 66.2658 49.7985C66.1027 49.6662 65.8606 49.5983 65.5379 49.5983C65.4314 49.5983 65.3215 49.6034 65.2048 49.6153C65.1636 49.6187 65.1138 49.6221 65.0554 49.6272C64.997 49.6306 64.9335 49.6323 64.8666 49.6323C64.7653 49.6323 64.6348 49.6289 64.4768 49.6204L64.2004 49.6153C64.1901 49.6153 64.1833 49.6272 64.1833 49.6492C64.1833 49.6713 64.1901 49.6815 64.2004 49.6815C64.3361 49.6815 64.4356 49.6916 64.4992 49.712C64.5644 49.7324 64.6073 49.7697 64.6296 49.8206C64.652 49.8732 64.664 49.9547 64.664 50.0667V52.6476C64.664 52.7596 64.652 52.8411 64.6262 52.892C64.6022 52.9446 64.5575 52.9802 64.4906 53.0023C64.4253 53.0226 64.3258 53.0328 64.1901 53.0328C64.1815 53.0328 64.1781 53.043 64.1781 53.065C64.1781 53.0871 64.1815 53.099 64.1901 53.099C64.3103 53.099 64.4064 53.0973 64.4768 53.0939L64.8666 53.0871C64.9558 53.0871 65.0382 53.0905 65.1086 53.0939C65.1807 53.0973 65.2426 53.1007 65.2958 53.1041C65.4383 53.116 65.5688 53.121 65.6907 53.121C65.9087 53.121 66.1044 53.0752 66.2795 52.9853C66.4547 52.8937 66.592 52.7681 66.6933 52.6086C66.7946 52.4491 66.8461 52.2709 66.8461 52.0741C66.8461 51.8212 66.7551 51.6074 66.5731 51.4343ZM65.2134 49.712C65.2597 49.6967 65.3301 49.6883 65.4245 49.6883C65.6546 49.6883 65.8229 49.7493 65.9327 49.8749C66.0409 49.9988 66.0958 50.1651 66.0958 50.3738C66.0958 50.6029 66.0323 50.7895 65.907 50.9304C65.7816 51.0712 65.5876 51.1425 65.3284 51.1425L65.0743 51.1374V50.0785C65.0743 49.9631 65.0863 49.8766 65.1086 49.8206C65.131 49.7663 65.167 49.729 65.2134 49.712ZM66.2092 52.8071C66.077 52.9463 65.8761 53.0158 65.6048 53.0158C65.4589 53.0158 65.3473 53.004 65.2717 52.9785C65.1979 52.9548 65.1464 52.9174 65.1172 52.8648C65.0898 52.8122 65.0743 52.7409 65.0743 52.6476V51.2765C65.2408 51.2647 65.3765 51.2613 65.4812 51.2647C65.7714 51.268 65.998 51.3563 66.1611 51.5294C66.3242 51.7025 66.4066 51.9298 66.4066 52.2132C66.4066 52.4694 66.3396 52.6663 66.2092 52.8071ZM71.1159 53.065C71.1159 53.043 71.1074 53.0328 71.0919 53.0328C70.9769 53.0328 70.8722 52.9836 70.7829 52.8869C70.6919 52.7902 70.5837 52.6069 70.4549 52.3354L69.1124 49.5712C69.1089 49.5593 69.0969 49.5542 69.0729 49.5542C69.0506 49.5542 69.0368 49.5593 69.0282 49.5712L67.8385 52.3235C67.756 52.517 67.6805 52.6646 67.6135 52.7647C67.5449 52.8648 67.4745 52.9344 67.4007 52.9734C67.3285 53.0124 67.2393 53.0328 67.1328 53.0328C67.1139 53.0328 67.1054 53.043 67.1054 53.065C67.1054 53.0871 67.1139 53.099 67.1328 53.099C67.2118 53.099 67.3079 53.0956 67.4213 53.0871C67.5569 53.0803 67.6719 53.0769 67.7646 53.0769C67.8711 53.0769 67.9947 53.0803 68.1372 53.0871C68.2659 53.0956 68.3638 53.099 68.4308 53.099C68.4497 53.099 68.4582 53.0871 68.4582 53.065C68.4582 53.043 68.4497 53.0328 68.4308 53.0328C68.0668 53.0328 67.8831 52.9157 67.8831 52.6816C67.8831 52.5882 67.9088 52.4864 67.9569 52.3744L68.29 51.6108H69.6377L70.1219 52.6137C70.1751 52.7257 70.2009 52.8088 70.2009 52.8648C70.2009 52.9276 70.1717 52.9717 70.115 52.9955C70.0566 53.0192 69.9588 53.0328 69.8231 53.0328C69.8094 53.0328 69.8008 53.043 69.8008 53.065C69.8008 53.0871 69.8094 53.099 69.8231 53.099C69.8918 53.099 69.9845 53.0956 70.1064 53.0871C70.2335 53.0803 70.3399 53.0769 70.4275 53.0769C70.4979 53.0769 70.6095 53.0803 70.7606 53.0871C70.9099 53.0956 71.0215 53.099 71.0919 53.099C71.1074 53.099 71.1159 53.0871 71.1159 53.065ZM68.3398 51.4937L68.9269 50.1447L69.5811 51.4937H68.3398Z" fill="white"/>
</svg>
