<svg width="241" height="84" viewBox="0 0 241 84" fill="none" xmlns="http://www.w3.org/2000/svg">
<path d="M67.8683 24.6588C67.1388 24.9012 66.4094 25.1435 65.5586 25.2646C69.5699 29.9815 71.8796 36.1507 71.8796 42.6817C71.8796 49.2143 69.4486 55.3835 65.5586 60.1004C66.2864 60.2215 67.1388 60.4638 67.8683 60.7062C71.7583 55.7469 74.1893 49.4566 74.1893 42.5622C74.1893 35.9084 71.8796 29.6197 67.8683 24.6588Z" fill="url(#paint0_linear_153_450)"/>
<path d="M19.1184 53.0848C18.5086 53.5694 17.9021 54.054 17.2939 54.4159C21.7905 64.9385 32.3686 72.3176 44.5253 72.3176C45.9843 72.3176 47.4432 72.1964 48.7808 71.9557C48.9021 71.1076 49.1464 70.3823 49.389 69.657C47.8087 69.8993 46.2285 70.1416 44.5253 70.1416C33.098 70.0189 23.2526 63.0032 19.1184 53.0848Z" fill="url(#paint1_linear_153_450)"/>
<path d="M48.7807 13.6516C47.3762 13.4061 45.9527 13.285 44.5268 13.2898C32.611 13.2898 22.4001 20.3054 17.6577 30.345C18.2659 30.7069 18.874 31.1915 19.4822 31.6745C23.7361 22.1195 33.3405 15.3462 44.5252 15.3462C46.2283 15.3462 47.8086 15.4657 49.3888 15.8292C49.1462 15.1022 48.9036 14.3769 48.7807 13.6516Z" fill="url(#paint2_linear_153_450)"/>
<path d="M13.1597 28.4098C13.8891 28.5309 14.6186 28.7716 15.2268 29.0139C20.4544 18.1262 31.5177 10.5065 44.5253 10.5065C45.8629 10.5065 47.3218 10.6276 48.6595 10.7488C48.6595 10.0218 48.7808 9.29815 48.9021 8.57123C47.4431 8.45007 45.9842 8.32892 44.5253 8.32892C30.6669 8.45007 18.6299 16.6772 13.1597 28.4098Z" fill="url(#paint3_linear_153_450)"/>
<path d="M44.5251 77.1556C45.9841 77.1556 47.443 77.0345 48.902 76.9133C48.7806 76.188 48.6593 75.4627 48.6593 74.7374C47.3217 74.8585 45.9841 74.9797 44.5251 74.9797C31.275 74.9797 19.8461 66.9948 14.8611 55.6258C14.1333 55.8681 13.4038 56.1104 12.6743 56.2299C18.0232 68.4471 30.3013 77.1556 44.5251 77.1556Z" fill="url(#paint4_linear_153_450)"/>
<path d="M72.1218 22.1194C71.5137 22.6041 71.0284 22.9659 70.299 23.4505C74.4316 28.8944 76.8642 35.5465 76.8642 42.8028C76.8642 50.0608 74.4316 56.7145 70.2974 62.1568C70.9071 62.5202 71.5137 63.0032 72.1218 63.4878C76.6305 57.533 79.0646 50.2685 79.0526 42.8028C79.0526 35.0619 76.4987 27.9251 72.1218 22.1194Z" fill="url(#paint5_linear_153_450)"/>
<path d="M75.4055 18.1278C75.04 18.8548 74.5547 19.4589 74.0679 20.0631C78.9315 26.3534 81.9707 34.2138 81.9707 42.8028C81.9942 51.0589 79.2076 59.0778 74.0679 65.5442C74.5531 66.1484 74.9186 66.7541 75.4055 67.4795C80.8757 60.7061 84.1591 52.1171 84.1591 42.8028C84.1591 33.369 80.8757 24.78 75.4055 18.1278Z" fill="url(#paint6_linear_153_450)"/>
<path d="M44.5251 80.0585C28.7226 80.0585 15.2266 70.2612 9.75638 56.4722C8.9056 56.4722 8.0532 56.3511 7.32373 56.2299C12.7956 71.3499 27.3833 82.2376 44.5251 82.2376C46.7135 82.2376 48.7806 81.9953 50.8477 81.753C50.4576 81.0812 50.0924 80.3952 49.7527 79.6966C48.0511 79.8178 46.3496 80.0585 44.5251 80.0585Z" fill="url(#paint7_linear_153_450)"/>
<path d="M7.68945 28.2886C8.41731 28.1675 9.14839 28.0463 9.99917 28.0463H10.1205C15.8349 14.7404 29.0867 5.42607 44.5253 5.42607C46.2284 5.42607 48.0513 5.54723 49.7528 5.78954C49.9955 5.06261 50.4823 4.33892 50.8479 3.73315C48.7808 3.36969 46.7137 3.24854 44.5253 3.24854C27.8704 3.36969 13.5252 13.6532 7.68945 28.2886Z" fill="url(#paint8_linear_153_450)"/>
<path d="M9.99927 50.9072C11.1479 50.9141 12.2864 50.6937 13.3493 50.2589C14.4123 49.8241 15.3785 49.1834 16.1922 48.3738C17.006 47.5643 17.6512 46.6018 18.0907 45.542C18.5302 44.4821 18.7553 43.3458 18.7529 42.1987C18.7555 41.0515 18.5306 39.9151 18.0912 38.8552C17.6517 37.7952 17.0065 36.8327 16.1927 36.023C15.3789 35.2134 14.4126 34.5728 13.3496 34.138C12.2866 33.7033 11.1479 33.4831 9.99927 33.4902C8.85081 33.4833 7.71236 33.7036 6.64956 34.1383C5.58675 34.573 4.62063 35.2136 3.80688 36.023C2.99313 36.8324 2.34786 37.7946 1.90827 38.8543C1.46868 39.914 1.24347 41.0501 1.24563 42.1971C1.24304 43.3444 1.46794 44.4808 1.90734 45.5408C2.34673 46.6009 2.99194 47.5635 3.80573 48.3733C4.61952 49.183 5.58579 49.8238 6.64881 50.2587C7.71182 50.6937 8.85054 50.9141 9.99927 50.9072ZM62.7621 82.7206C63.9108 82.7274 65.0495 82.507 66.1125 82.0721C67.1756 81.6372 68.1418 80.9964 68.9556 80.1867C69.7694 79.3769 70.4146 78.4142 70.854 77.3542C71.2934 76.2942 71.5183 75.1577 71.5157 74.0105C71.5181 72.8633 71.2931 71.727 70.8536 70.6672C70.4141 69.6073 69.7688 68.6449 68.9551 67.8353C68.1413 67.0257 67.1751 66.385 66.1122 65.9502C65.0493 65.5154 63.9107 65.2951 62.7621 65.3019C61.6135 65.2951 60.4749 65.5154 59.412 65.9502C58.3491 66.385 57.3829 67.0257 56.5691 67.8353C55.7554 68.6449 55.1101 69.6073 54.6706 70.6672C54.2311 71.727 54.0061 72.8633 54.0085 74.0105C54.0059 75.1577 54.2308 76.2942 54.6702 77.3542C55.1096 78.4142 55.7548 79.3769 56.5686 80.1867C57.3823 80.9964 58.3486 81.6372 59.4116 82.0721C60.4746 82.507 61.6134 82.7274 62.7621 82.7206ZM62.7621 20.1842C63.9108 20.1911 65.0495 19.9707 66.1125 19.5357C67.1756 19.1008 68.1418 18.46 68.9556 17.6503C69.7694 16.8405 70.4146 15.8779 70.854 14.8178C71.2934 13.7578 71.5183 12.6214 71.5157 11.4741C71.5181 10.3269 71.2931 9.19066 70.8536 8.13081C70.4141 7.07096 69.7688 6.10849 68.9551 5.29891C68.1413 4.48934 67.1751 3.84867 66.1122 3.41386C65.0493 2.97905 63.9107 2.75871 62.7621 2.76553C61.6135 2.75871 60.4749 2.97905 59.412 3.41386C58.3491 3.84867 57.3829 4.48934 56.5691 5.29891C55.7554 6.10849 55.1101 7.07096 54.6706 8.13081C54.2311 9.19066 54.0061 10.3269 54.0085 11.4741C54.0059 12.6214 54.2308 13.7578 54.6702 14.8178C55.1096 15.8779 55.7548 16.8405 56.5686 17.6503C57.3823 18.46 58.3486 19.1008 59.4116 19.5357C60.4746 19.9707 61.6134 20.1911 62.7621 20.1842Z" fill="#009A9D"/>
<path d="M169.866 19.8208V14.7404H172.177C172.905 14.7404 173.513 14.9827 173.879 15.3461C174.364 15.8308 174.487 16.4349 174.487 17.1602C174.487 18.0067 174.243 18.6124 173.635 19.0954C173.028 19.5801 172.177 19.8224 171.082 19.8224L169.866 19.8208ZM175.823 21.273C176.918 20.3038 177.526 18.9743 177.526 17.2814C177.526 16.3121 177.282 15.3461 176.918 14.6192C176.552 13.7728 175.946 13.1686 175.094 12.684C174.364 12.1994 173.392 11.9587 172.42 11.9587H166.827V28.0479H169.745V22.6041H170.84C173.028 22.6041 174.608 22.1194 175.823 21.273ZM126.465 21.0323H132.666V18.249H126.465V14.7404H134.489V11.9587H123.547V28.0479H135.097V25.2646H126.465V21.0323ZM127.073 47.4002H133.151V44.7381H127.073V41.2311H135.096V38.4494H124.036V54.537H135.704V51.7553H127.071L127.073 47.4002ZM140.081 21.0323H146.89V28.0463H149.806V11.9587H146.89V18.249H140.081V11.9587H137.164V28.0479H140.081V21.0307V21.0323ZM156.98 28.0463H160.021V14.7404H165.004V11.9587H151.995V14.7404H156.98V28.0463ZM118.928 11.9587H115.888V25.2646H108.959V11.9587H105.918V28.0479H117.956V30.1027H120.995V25.2646H118.928V11.9587ZM201.597 38.4494H198.558V51.7553H191.629V38.4494H188.588V54.537H191.629V54.4158H198.558V54.537H200.625V56.5934H203.664V51.7537H201.597V38.4494ZM141.54 51.7553L142.148 50.1819L144.457 41.2311H148.226V51.7553H141.54ZM151.267 38.4494H142.269V38.5705L139.353 49.9396L138.745 51.7553H136.92V56.5934H139.838V54.4158H150.415V56.5934H153.334V51.7537H151.267V38.4494ZM114.793 49.3355L118.319 43.5298V54.537H121.237V38.4461H118.319L113.7 46.3098L108.959 38.4478H106.04V54.5354H108.958V43.5281L112.484 49.3338H114.792L114.793 49.3355ZM176.067 48.7313L178.741 41.8368L181.416 48.7313H176.067ZM180.2 38.0859H177.282L170.717 54.537H173.635L174.851 51.513H182.388L183.605 54.537H186.522L180.2 38.0859ZM158.073 49.9396V38.4494H155.157V54.537H158.075V54.4158L165.733 42.924V54.537H168.773V38.4461H165.733L158.075 49.938L158.073 49.9396ZM209.013 49.9396V38.4494H205.974V54.537H209.013V54.4158L216.672 42.924V54.537H219.59V38.4461H216.672L209.013 49.938V49.9396ZM233.45 38.4494L225.668 49.9396V38.4494H222.75V54.537H225.668V54.4158H225.789L233.45 42.924V54.537H236.367V38.4461H233.45V38.4494ZM106.04 75.8261V68.2048H112.728V75.8261H110.903V69.6554H107.864V75.8261H106.04ZM114.551 78.729V68.2048H116.375V69.4147H116.497C116.618 69.1724 116.739 69.0512 116.861 68.8105C116.982 68.5682 117.226 68.4471 117.59 68.3259C117.936 68.175 118.308 68.0927 118.685 68.0836C119.293 68.0836 119.778 68.2048 120.387 68.5682C120.872 68.8105 121.237 69.2951 121.603 69.8977C121.845 70.5035 122.088 71.2288 122.088 72.0752C122.088 72.9217 121.967 73.6486 121.724 74.2528C121.482 74.8585 121.116 75.3415 120.508 75.5838C120.023 75.9457 119.414 76.0685 118.806 76.0685C118.321 76.0685 117.956 75.9473 117.711 75.8261C117.469 75.705 117.226 75.4627 116.983 75.3415C116.86 75.0992 116.618 74.9797 116.618 74.7374H116.497V78.8501H114.551V78.729ZM116.375 72.0752C116.375 72.5598 116.497 73.0445 116.618 73.4063C116.739 73.7698 116.982 74.0105 117.226 74.2528C117.469 74.4951 117.834 74.6162 118.198 74.6162C118.557 74.6257 118.906 74.4954 119.17 74.2528C119.413 74.0105 119.657 73.7681 119.778 73.4063C119.928 72.978 120.01 72.5288 120.021 72.0752C120.021 71.5906 119.9 71.2288 119.778 70.8669C119.657 70.5034 119.414 70.2611 119.17 70.0188C118.905 69.7768 118.557 69.6471 118.198 69.657C117.839 69.6472 117.491 69.777 117.226 70.0188C116.983 70.2611 116.741 70.5034 116.618 70.8669C116.375 71.1092 116.375 71.5922 116.375 72.0752ZM125.372 73.4063L128.532 68.2048H130.478V75.8261H128.652V70.6246L125.491 75.8261H123.545V68.2048H125.37L125.372 73.4063ZM135.946 75.8261V65.6654H139.838C140.689 65.6654 141.297 65.7865 141.905 66.15C142.513 66.3923 142.877 66.8753 143.121 67.3583C143.364 67.8429 143.485 68.4471 143.485 69.0512C143.485 69.657 143.364 70.2628 143.121 70.7458C142.879 71.2304 142.39 71.5922 141.905 71.9541C141.297 72.1964 140.689 72.4387 139.838 72.4387H137.286V70.8669H139.595C140.081 70.8669 140.446 70.7458 140.689 70.6246C140.931 70.5035 141.174 70.2611 141.297 70.0205C141.418 69.7781 141.54 69.4147 141.54 69.0512C141.54 68.6894 141.418 68.3259 141.297 68.0836C141.143 67.7944 140.882 67.5773 140.569 67.4795C140.184 67.3166 139.771 67.2341 139.353 67.2371H137.65V75.8261H135.946ZM154.183 69.1724H152.239C152.239 68.8105 152.118 68.5682 151.996 68.3259C151.873 68.0836 151.631 67.8413 151.51 67.7218L150.78 67.3583C150.537 67.2371 150.172 67.2371 149.929 67.2371C149.321 67.2371 148.834 67.3583 148.47 67.6006C147.985 67.8429 147.741 68.3275 147.497 68.8105C147.254 69.2951 147.133 70.0188 147.133 70.7458C147.133 71.4711 147.254 72.1964 147.497 72.681C147.739 73.1656 148.105 73.6486 148.47 73.8893C148.956 74.1316 149.442 74.2528 149.929 74.2528C150.293 74.2528 150.537 74.2528 150.78 74.1316L151.508 73.7698C151.752 73.6486 151.873 73.4063 152.118 73.164C152.239 72.9217 152.36 72.6794 152.482 72.3175H154.427C154.304 72.8021 154.185 73.2868 153.941 73.6486C153.698 74.0104 153.455 74.4951 152.968 74.7374C152.595 75.0937 152.133 75.3441 151.631 75.4627C151.146 75.5838 150.536 75.705 149.929 75.705C148.956 75.705 148.226 75.4627 147.497 75.0992C146.73 74.7182 146.126 74.0743 145.795 73.2851C145.431 72.5582 145.187 71.5922 145.187 70.5035C145.187 69.4147 145.43 68.4471 145.795 67.7218C146.161 66.9948 146.767 66.3907 147.497 65.9061C148.251 65.5221 149.083 65.3154 149.929 65.3019C150.537 65.3019 151.023 65.4231 151.51 65.5442C151.995 65.6654 152.482 65.9061 152.847 66.2711C153.211 66.633 153.575 66.9948 153.818 67.3583C153.941 68.0852 154.062 68.5682 154.183 69.1724ZM164.396 65.6654V75.8261H162.573V67.2371H157.952V75.8261H156.129V65.6654H164.396ZM175.216 65.6654V75.8261H173.392V67.2371H168.773V75.8261H166.95V65.6654H175.216Z" fill="#3C4C54"/>
<defs>
<linearGradient id="paint0_linear_153_450" x1="12.4626" y1="42.6445" x2="100.229" y2="42.8308" gradientUnits="userSpaceOnUse">
<stop stop-color="#009A9D"/>
<stop offset="0.122" stop-color="#049C9F"/>
<stop offset="0.254" stop-color="#11A1A4"/>
<stop offset="0.389" stop-color="#27A9AD"/>
<stop offset="0.528" stop-color="#45B5B9"/>
<stop offset="0.669" stop-color="#6CC4C9"/>
<stop offset="0.812" stop-color="#9BD7DC"/>
<stop offset="0.954" stop-color="#D2ECF2"/>
<stop offset="1" stop-color="#E6F4FA"/>
</linearGradient>
<linearGradient id="paint1_linear_153_450" x1="12.4206" y1="62.6269" x2="100.187" y2="62.8131" gradientUnits="userSpaceOnUse">
<stop stop-color="#009A9D"/>
<stop offset="0.122" stop-color="#049C9F"/>
<stop offset="0.254" stop-color="#11A1A4"/>
<stop offset="0.389" stop-color="#27A9AD"/>
<stop offset="0.528" stop-color="#45B5B9"/>
<stop offset="0.669" stop-color="#6CC4C9"/>
<stop offset="0.812" stop-color="#9BD7DC"/>
<stop offset="0.954" stop-color="#D2ECF2"/>
<stop offset="1" stop-color="#E6F4FA"/>
</linearGradient>
<linearGradient id="paint2_linear_153_450" x1="12.5061" y1="22.4522" x2="100.271" y2="22.6385" gradientUnits="userSpaceOnUse">
<stop stop-color="#009A9D"/>
<stop offset="0.122" stop-color="#049C9F"/>
<stop offset="0.254" stop-color="#11A1A4"/>
<stop offset="0.389" stop-color="#27A9AD"/>
<stop offset="0.528" stop-color="#45B5B9"/>
<stop offset="0.669" stop-color="#6CC4C9"/>
<stop offset="0.812" stop-color="#9BD7DC"/>
<stop offset="0.954" stop-color="#D2ECF2"/>
<stop offset="1" stop-color="#E6F4FA"/>
</linearGradient>
<linearGradient id="paint3_linear_153_450" x1="12.5143" y1="18.7223" x2="100.279" y2="18.9085" gradientUnits="userSpaceOnUse">
<stop stop-color="#009A9D"/>
<stop offset="0.122" stop-color="#049C9F"/>
<stop offset="0.254" stop-color="#11A1A4"/>
<stop offset="0.389" stop-color="#27A9AD"/>
<stop offset="0.528" stop-color="#45B5B9"/>
<stop offset="0.669" stop-color="#6CC4C9"/>
<stop offset="0.812" stop-color="#9BD7DC"/>
<stop offset="0.954" stop-color="#D2ECF2"/>
<stop offset="1" stop-color="#E6F4FA"/>
</linearGradient>
<linearGradient id="paint4_linear_153_450" x1="12.4139" y1="66.297" x2="100.178" y2="66.4832" gradientUnits="userSpaceOnUse">
<stop stop-color="#009A9D"/>
<stop offset="0.122" stop-color="#049C9F"/>
<stop offset="0.254" stop-color="#11A1A4"/>
<stop offset="0.389" stop-color="#27A9AD"/>
<stop offset="0.528" stop-color="#45B5B9"/>
<stop offset="0.669" stop-color="#6CC4C9"/>
<stop offset="0.812" stop-color="#9BD7DC"/>
<stop offset="0.954" stop-color="#D2ECF2"/>
<stop offset="1" stop-color="#E6F4FA"/>
</linearGradient>
<linearGradient id="paint5_linear_153_450" x1="12.4622" y1="42.6364" x2="100.228" y2="42.8227" gradientUnits="userSpaceOnUse">
<stop stop-color="#009A9D"/>
<stop offset="0.122" stop-color="#049C9F"/>
<stop offset="0.254" stop-color="#11A1A4"/>
<stop offset="0.389" stop-color="#27A9AD"/>
<stop offset="0.528" stop-color="#45B5B9"/>
<stop offset="0.669" stop-color="#6CC4C9"/>
<stop offset="0.812" stop-color="#9BD7DC"/>
<stop offset="0.954" stop-color="#D2ECF2"/>
<stop offset="1" stop-color="#E6F4FA"/>
</linearGradient>
<linearGradient id="paint6_linear_153_450" x1="12.4624" y1="42.63" x2="100.229" y2="42.8162" gradientUnits="userSpaceOnUse">
<stop stop-color="#009A9D"/>
<stop offset="0.122" stop-color="#049C9F"/>
<stop offset="0.254" stop-color="#11A1A4"/>
<stop offset="0.389" stop-color="#27A9AD"/>
<stop offset="0.528" stop-color="#45B5B9"/>
<stop offset="0.669" stop-color="#6CC4C9"/>
<stop offset="0.812" stop-color="#9BD7DC"/>
<stop offset="0.954" stop-color="#D2ECF2"/>
<stop offset="1" stop-color="#E6F4FA"/>
</linearGradient>
<linearGradient id="paint7_linear_153_450" x1="12.4074" y1="69.1449" x2="100.172" y2="69.3312" gradientUnits="userSpaceOnUse">
<stop stop-color="#009A9D"/>
<stop offset="0.122" stop-color="#049C9F"/>
<stop offset="0.254" stop-color="#11A1A4"/>
<stop offset="0.389" stop-color="#27A9AD"/>
<stop offset="0.528" stop-color="#45B5B9"/>
<stop offset="0.669" stop-color="#6CC4C9"/>
<stop offset="0.812" stop-color="#9BD7DC"/>
<stop offset="0.954" stop-color="#D2ECF2"/>
<stop offset="1" stop-color="#E6F4FA"/>
</linearGradient>
<linearGradient id="paint8_linear_153_450" x1="12.5208" y1="15.7855" x2="100.285" y2="15.9718" gradientUnits="userSpaceOnUse">
<stop stop-color="#009A9D"/>
<stop offset="0.122" stop-color="#049C9F"/>
<stop offset="0.254" stop-color="#11A1A4"/>
<stop offset="0.389" stop-color="#27A9AD"/>
<stop offset="0.528" stop-color="#45B5B9"/>
<stop offset="0.669" stop-color="#6CC4C9"/>
<stop offset="0.812" stop-color="#9BD7DC"/>
<stop offset="0.954" stop-color="#D2ECF2"/>
<stop offset="1" stop-color="#E6F4FA"/>
</linearGradient>
</defs>
</svg>
