<svg width="24" height="24" viewBox="0 0 24 24" fill="none" xmlns="http://www.w3.org/2000/svg">
<g opacity="0.85">
<path d="M10.9998 7.00015C10.611 7.39223 10.6136 8.02522 11.0057 8.41405L13.9051 11.2901C14.2995 11.6812 14.2995 12.3188 13.9051 12.71L11.0057 15.586C10.6136 15.9749 10.611 16.6078 10.9998 16.9999C11.3886 17.3921 12.0218 17.3947 12.4139 17.0058L16.7451 12.71C17.1395 12.3189 17.1395 11.6812 16.7451 11.29L12.4139 6.99426C12.0218 6.60534 11.3886 6.60798 10.9998 7.00015Z" fill="white"/>
<path d="M8.65794 8.02844C8.34685 7.71989 7.8445 7.72198 7.53599 8.03312C7.22755 8.34419 7.22964 8.84639 7.54065 9.15489L9.69317 11.29C10.0875 11.6812 10.0875 12.3188 9.69317 12.7099L7.54065 14.845C7.22964 15.1535 7.22755 15.6557 7.53599 15.9668C7.8445 16.2779 8.34684 16.28 8.65794 15.9715L11.9463 12.71C12.3407 12.3188 12.3407 11.6811 11.9463 11.29L8.65794 8.02844Z" fill="white" fill-opacity="0.6"/>
</g>
</svg>
