<?xml version="1.0" standalone="no"?>
<!DOCTYPE svg PUBLIC "-//W3C//DTD SVG 20010904//EN"
 "http://www.w3.org/TR/2001/REC-SVG-20010904/DTD/svg10.dtd">
<svg version="1.0" xmlns="http://www.w3.org/2000/svg"
 width="700.000000pt" height="700.000000pt" viewBox="0 0 700.000000 700.000000"
 preserveAspectRatio="xMidYMid meet">
<metadata>
Created by potrace 1.14, written by Peter Selinger 2001-2017
</metadata>
<g transform="translate(0.000000,700.000000) scale(0.100000,-0.100000)"
fill="#000000" stroke="none">
<path d="M0 3500 l0 -3500 3500 0 3500 0 0 3500 0 3500 -3500 0 -3500 0 0
-3500z m3950 2782 c21 -17 21 -20 10 -101 -38 -254 42 -471 299 -811 85 -113
138 -212 183 -341 l33 -94 -1 -235 c0 -175 -4 -253 -16 -305 l-16 -70 -1 60
c-1 73 -26 290 -42 365 -23 114 -82 298 -120 375 -21 44 -71 123 -110 175
-207 278 -300 470 -327 676 l-8 59 -23 -60 c-57 -150 -66 -344 -22 -528 27
-112 26 -123 -4 -143 -23 -15 -27 -15 -54 2 -17 11 -56 42 -89 71 l-59 52 9
-57 c19 -122 57 -221 124 -315 50 -70 43 -127 -16 -127 -31 0 -141 63 -226
130 -74 58 -73 59 -50 -72 15 -83 51 -170 93 -228 22 -29 18 -27 -25 14 -94
90 -156 248 -169 427 -6 85 -5 87 20 104 36 23 60 12 96 -44 17 -26 43 -58 57
-72 24 -22 26 -22 21 -4 -43 145 -60 294 -47 418 10 97 20 117 58 117 35 0 62
-27 62 -63 0 -24 42 -117 53 -117 2 0 3 62 3 138 0 106 5 157 22 226 28 110
86 237 147 315 65 85 92 98 135 63z m-1637 -304 c10 -8 24 -51 36 -114 48
-236 144 -438 301 -629 127 -154 242 -248 563 -459 337 -221 474 -331 587
-475 124 -158 178 -276 185 -405 2 -39 2 -60 -1 -46 -26 146 -53 210 -135 322
-74 100 -225 237 -351 321 -62 42 -207 128 -323 192 -267 148 -342 202 -491
350 -166 165 -271 313 -348 490 -18 41 -36 78 -41 83 -10 9 1 -200 15 -286 30
-180 117 -325 247 -408 42 -27 53 -39 53 -61 0 -31 -26 -63 -51 -63 -26 0
-285 132 -366 186 -37 25 -72 48 -77 52 -6 3 7 -25 28 -63 113 -206 317 -381
543 -466 68 -26 84 -36 90 -57 6 -27 -4 -49 -30 -66 -18 -12 -198 20 -367 65
-57 15 -106 26 -108 25 -4 -5 114 -107 185 -158 67 -49 215 -128 278 -148 21
-7 84 -20 139 -29 90 -15 102 -20 115 -43 13 -23 13 -28 -2 -51 -14 -22 -26
-26 -94 -33 -95 -9 -308 9 -418 35 -44 11 -81 18 -83 16 -7 -7 165 -137 245
-186 173 -105 339 -160 528 -174 99 -8 125 -21 125 -65 0 -47 -19 -53 -133
-46 -207 13 -564 19 -581 9 -15 -8 -8 -18 47 -70 104 -97 315 -188 482 -208
76 -9 97 -20 93 -48 -4 -25 -79 -58 -211 -92 l-89 -22 39 -16 c67 -26 124 -39
258 -58 l130 -18 -137 5 c-196 7 -353 50 -353 98 0 24 14 31 114 57 87 23 90
31 12 43 -76 12 -254 74 -321 113 -77 45 -188 153 -214 207 -34 73 6 108 145
126 46 5 86 10 88 10 3 0 -26 19 -65 42 -164 98 -400 304 -479 418 -27 39 -28
44 -14 68 20 37 48 38 116 4 58 -30 225 -92 245 -92 6 0 -20 22 -58 49 -144
101 -333 289 -410 406 -21 32 -11 72 21 87 21 9 32 6 87 -30 51 -33 183 -92
205 -92 3 0 -30 35 -73 78 -130 128 -236 310 -290 500 -24 87 -25 94 -10 117
20 30 59 33 84 6 88 -95 125 -130 176 -167 32 -24 62 -44 66 -44 4 0 -8 44
-26 98 -18 53 -38 138 -45 187 -16 121 -5 380 21 510 20 100 34 125 70 125 9
0 24 -6 33 -12z m2465 -1843 c63 -27 108 -64 152 -126 47 -68 88 -101 145
-119 54 -17 65 -27 65 -60 0 -39 -18 -49 -97 -54 -166 -12 -258 -83 -350 -274
-73 -152 -110 -253 -172 -462 -70 -238 -123 -342 -221 -441 -58 -59 -94 -85
-160 -118 -136 -66 -216 -83 -426 -88 l-181 -5 -259 -211 c-316 -256 -451
-347 -518 -347 -32 0 -56 34 -56 80 0 44 -31 104 -56 108 -11 1 -59 -14 -109
-33 -57 -23 -114 -39 -155 -42 -61 -5 -68 -3 -98 22 -41 34 -42 75 -5 130 34
52 150 189 202 240 23 21 41 42 41 45 0 4 -25 12 -55 19 -133 30 -281 134
-334 236 -26 50 -26 67 -1 90 19 17 26 17 123 4 60 -8 181 -14 297 -14 162 1
212 5 297 23 128 28 253 71 366 127 48 24 85 40 83 36 -11 -17 -152 -105 -235
-147 -196 -97 -403 -147 -618 -148 -138 -1 -142 -2 -120 -19 62 -49 209 -96
298 -97 41 0 89 -32 89 -59 0 -10 -37 -58 -83 -107 -112 -121 -231 -263 -224
-270 2 -3 31 6 63 19 108 45 164 59 200 53 47 -9 103 -61 129 -119 l21 -49 80
54 c43 29 197 149 342 267 l263 213 177 3 c201 2 278 18 409 81 157 75 242
202 323 483 55 191 92 293 155 432 85 189 168 293 272 341 27 13 49 23 51 24
9 5 -94 137 -120 156 -154 109 -428 -18 -647 -300 -63 -83 -49 -47 30 73 116
176 256 300 393 347 65 22 183 24 234 3z m-3928 -2967 c0 -41 -1 -42 -13 -18
-12 23 -18 25 -100 28 l-88 3 3 -108 3 -108 40 -3 c62 -5 105 6 115 31 6 16 9
7 9 -38 0 -50 -2 -56 -11 -37 -10 20 -18 22 -85 22 l-74 0 3 -102 3 -103 55
-3 c79 -5 124 11 150 53 12 19 23 35 26 35 2 0 -5 -24 -16 -52 -11 -29 -20
-54 -20 -55 0 -2 -66 -3 -147 -2 -82 0 -141 3 -133 6 37 13 40 33 40 244 0
180 -2 208 -17 220 -17 14 -8 15 220 27 l37 2 0 -42z m2423 17 c156 -65 197
-284 76 -404 -57 -57 -89 -66 -264 -68 -88 -1 -153 0 -145 3 37 15 40 34 40
243 0 176 -2 207 -17 223 -16 17 -11 18 129 18 107 0 155 -4 181 -15z m-1664
-82 c0 -33 -1 -35 -9 -15 -9 20 -16 22 -95 22 l-85 0 0 -90 0 -90 63 0 c65 0
80 5 90 30 3 8 6 -7 6 -35 0 -39 -2 -46 -10 -32 -8 14 -24 17 -79 17 l-70 0 0
-91 0 -91 81 4 c81 3 82 4 115 42 39 46 41 44 14 -18 l-19 -46 -148 1 c-81 1
-137 4 -123 8 l25 7 3 188 c2 128 -1 193 -9 202 -9 11 8 14 98 17 59 1 118 4
131 5 19 2 22 -2 21 -35z m324 -128 c97 -91 178 -165 181 -165 3 0 6 67 6 150
0 131 -2 150 -17 159 -14 8 -7 10 31 11 48 0 49 0 31 -19 -15 -18 -17 -40 -14
-215 l4 -195 -30 28 c-16 15 -98 91 -181 169 -83 78 -154 142 -158 142 -4 0
-5 -68 -4 -152 3 -151 3 -153 28 -165 22 -11 18 -13 -45 -13 -63 0 -67 2 -45
13 l25 13 0 202 c0 111 3 202 6 202 4 0 86 -74 182 -165z m632 -40 c67 -148
96 -200 115 -210 23 -13 19 -14 -50 -14 -56 0 -70 2 -57 10 22 13 21 34 -3 87
l-19 42 -91 0 -91 0 -19 -42 c-24 -53 -25 -74 -2 -87 13 -8 -1 -10 -53 -10
-66 0 -68 1 -44 14 19 10 49 64 120 214 51 109 96 198 99 196 3 -2 46 -92 95
-200z m1201 0 c66 -147 95 -200 114 -210 23 -13 19 -14 -50 -14 -56 0 -70 2
-57 10 22 13 21 34 -3 87 l-19 42 -91 0 -91 0 -19 -46 c-25 -56 -25 -70 -2
-83 13 -8 -1 -10 -53 -10 -53 0 -64 2 -47 10 18 7 47 58 118 204 52 107 94
199 94 205 0 29 24 -15 106 -195z m400 39 l179 -166 3 148 c2 131 1 150 -15
161 -14 11 -10 13 30 13 l47 0 -16 -25 c-15 -23 -16 -49 -12 -216 l6 -191 -37
34 c-20 19 -102 96 -182 171 -81 75 -149 137 -153 137 -4 0 -5 -68 -4 -152 3
-151 3 -153 28 -165 22 -11 18 -13 -45 -13 -63 0 -67 2 -45 13 l25 13 0 202
c0 111 3 202 6 202 4 0 87 -75 185 -166z m1315 138 c124 -65 157 -225 66 -328
-50 -57 -100 -79 -187 -79 -85 0 -133 20 -187 77 -41 42 -53 76 -53 144 0 66
26 122 75 161 48 39 89 51 166 52 55 1 77 -4 120 -27z m833 -59 c99 -225 149
-321 169 -331 17 -8 6 -11 -53 -11 -56 0 -70 2 -57 10 22 13 21 34 -3 87 l-19
42 -91 0 -91 0 -19 -46 c-25 -56 -25 -70 -2 -83 13 -8 -1 -10 -53 -11 -62 0
-67 2 -45 13 25 12 78 110 171 319 24 54 46 98 49 98 3 0 23 -39 44 -87z
m-5236 66 c-16 -9 -18 -30 -18 -199 l0 -190 60 0 c70 0 120 18 145 51 14 20
16 20 10 4 -4 -11 -12 -32 -17 -47 l-10 -28 -146 0 c-125 0 -143 2 -122 13
l25 13 3 181 c2 155 0 183 -13 197 -15 15 -11 16 42 16 44 -1 54 -3 41 -11z
m3549 -2 c-16 -11 -17 -32 -15 -197 l3 -184 25 -13 c22 -11 15 -13 -60 -12
-47 1 -76 4 -65 6 43 11 45 18 45 204 0 148 -3 180 -16 193 -14 15 -10 16 42
16 49 0 55 -2 41 -13z m229 -3 c-13 -13 -16 -46 -16 -201 l0 -186 82 5 c81 5
83 6 116 44 l34 39 -20 -50 -20 -50 -148 -3 c-126 -2 -145 0 -124 11 l25 13 3
184 c2 165 1 186 -15 197 -14 11 -8 13 41 13 52 0 56 -1 42 -16z m882 -3 c-10
-16 -2 -43 52 -173 34 -84 64 -154 65 -156 4 -5 135 306 135 321 0 9 -6 18
-12 20 -7 3 14 6 47 6 58 1 59 1 36 -15 -22 -16 -60 -90 -167 -324 l-43 -95
-15 35 c-60 143 -170 368 -187 383 -21 17 -20 17 40 17 58 0 61 -1 49 -19z"/>
<path d="M3020 960 l0 -222 108 4 c98 3 113 6 149 30 58 38 87 103 87 193 0
84 -25 139 -81 182 -34 26 -43 28 -150 31 l-113 4 0 -222z"/>
<path d="M2457 1053 c-4 -6 -22 -47 -41 -92 l-34 -81 79 0 79 0 -19 48 c-42
105 -58 135 -64 125z"/>
<path d="M3651 1039 c-5 -14 -23 -55 -39 -92 l-31 -67 81 0 c60 0 79 3 75 13
-3 6 -17 44 -32 82 -34 86 -42 95 -54 64z"/>
<path d="M5273 1099 c-82 -40 -125 -156 -94 -252 16 -49 74 -102 126 -117 143
-40 268 87 234 237 -27 124 -155 187 -266 132z"/>
<path d="M6244 1024 c-9 -21 -24 -59 -35 -83 -10 -24 -19 -47 -19 -52 0 -5 34
-9 75 -9 41 0 75 1 75 3 0 5 -71 172 -76 176 -2 2 -11 -13 -20 -35z"/>
</g>
</svg>
